<svg xmlns="http://www.w3.org/2000/svg" xmlns:xlink="http://www.w3.org/1999/xlink" viewBox="0 0 85 85" fill="#fff" fill-rule="evenodd" stroke="#000" stroke-linecap="round" stroke-linejoin="round"><use xlink:href="#A" x="2.5" y="2.5"/><symbol id="A" overflow="visible"><g stroke="none"><path d="M10.223 23.27c0-5.677 4.57-10.247 10.246-10.247h39.05c5.676 0 10.246 4.57 10.246 10.247v39.056c0 5.677-4.57 10.247-10.246 10.247H20.47c-5.676 0-10.246-4.57-10.246-10.247z" fill="#19486f"/><g fill="#2e73b8"><path d="M10.223 20.483c0-5.677 4.57-10.247 10.246-10.247h39.05c5.676 0 10.246 4.57 10.246 10.247V59.54c0 5.677-4.57 10.247-10.246 10.247H20.47c-5.676 0-10.246-4.57-10.246-10.247z"/><path d="M51.23 0h4.494v15.337H51.23zM24.266 0h4.494v15.337h-4.494zm20.222 0h4.494v15.337h-4.494zm-13.48 0H35.5v15.337h-4.494zm6.74 0h4.494v15.337h-4.494zM0 51.236h20.334v4.494H0zM0 31h20.334v4.494H0zm0 13.484h20.334v4.494H0zm0-6.74h20.334v4.494H0zM0 24.27h20.334v4.494H0zm24.266 38.067h4.494V80h-4.494zm26.964 0h4.494V80H51.23zm-20.223 0H35.5V80h-4.494zm13.48 0h4.494V80h-4.494zm-6.74 0h4.494V80h-4.494zm24.344-17.843H80v4.494H62.092zm0-20.224H80v4.494H62.092zm0 13.483H80v4.494H62.092zm0-6.743H80v4.494H62.092zm0 20.226H80v4.494H62.092z"/></g><path d="M35.13 53.483h9.74v6a3.74 3.74 0 0 1-3.753 3.73H38.87a3.74 3.74 0 0 1-3.741-3.742v-5.977zm9.73-.383h-9.73c-.93 0-1.685-.755-1.685-1.685s.755-1.685 1.685-1.685h9.74c.93 0 1.685.755 1.685 1.685S45.8 53.1 44.87 53.1zm-10.562-9.2c-.76.002-1.427-.504-1.63-1.237s.1-1.5.765-1.898l15.728-9.37a1.69 1.69 0 0 1 2.553 1.425 1.69 1.69 0 0 1-.823 1.474l-15.728 9.37c-.262.155-.56.237-.865.236zM30.03 32.55c-.76.002-1.427-.504-1.63-1.237s.1-1.5.764-1.898l15.728-9.37a1.69 1.69 0 0 1 2.314.584 1.69 1.69 0 0 1-.584 2.315l-15.728 9.37c-.262.155-.56.237-.865.236z"/><path d="M30.03 39.506c-.76.002-1.427-.504-1.63-1.237s.1-1.5.764-1.898L49.15 24.45c.518-.3 1.16-.318 1.688-.024a1.69 1.69 0 0 1 .043 2.923L30.883 39.27c-.258.153-.553.235-.854.236zM39.994 53.1c-.93 0-1.685-.755-1.685-1.685v-5.618c-.001-.594.3-1.144.82-1.45l10.02-5.978a1.69 1.69 0 0 1 2.314.584 1.69 1.69 0 0 1-.584 2.315l-9.2 5.483v4.663c0 .93-.755 1.685-1.685 1.685z"/><path d="M30.03 25.595c-.76.002-1.427-.504-1.63-1.237s.11-1.5.764-1.898l8.313-4.933a1.69 1.69 0 0 1 2.314.584 1.69 1.69 0 0 1-.584 2.315l-8.325 4.966c-.262.142-.556.21-.854.202z"/></g></symbol></svg>