<svg xmlns="http://www.w3.org/2000/svg" xmlns:xlink="http://www.w3.org/1999/xlink" viewBox="0 0 85 85" fill="#fff" fill-rule="evenodd" stroke="#000" stroke-linecap="round" stroke-linejoin="round"><use xlink:href="#A" x="2.5" y="2.5"/><symbol id="A" overflow="visible"><g stroke="none"><path d="M10.223 23.27c0-5.677 4.57-10.247 10.246-10.247h39.05c5.676 0 10.246 4.57 10.246 10.247v39.056c0 5.677-4.57 10.247-10.246 10.247H20.47c-5.676 0-10.246-4.57-10.246-10.247z" fill="#19486f"/><g fill="#2e73b8"><path d="M10.223 20.483c0-5.677 4.57-10.247 10.246-10.247h39.05c5.676 0 10.246 4.57 10.246 10.247V59.54c0 5.677-4.57 10.247-10.246 10.247H20.47c-5.676 0-10.246-4.57-10.246-10.247z"/><path d="M51.23 0h4.494v15.337H51.23zM24.266 0h4.494v15.337h-4.494zm20.222 0h4.494v15.337h-4.494zm-13.48 0H35.5v15.337h-4.494zm6.74 0h4.494v15.337h-4.494zM0 51.236h20.334v4.494H0zM0 31h20.334v4.494H0zm0 13.484h20.334v4.494H0zm0-6.74h20.334v4.494H0zM0 24.27h20.334v4.494H0zm24.266 38.067h4.494V80h-4.494zm26.964 0h4.494V80H51.23zm-20.223 0H35.5V80h-4.494zm13.48 0h4.494V80h-4.494zm-6.74 0h4.494V80h-4.494zm24.344-17.843H80v4.494H62.092zm0-20.224H80v4.494H62.092zm0 13.483H80v4.494H62.092zm0-6.743H80v4.494H62.092zm0 20.226H80v4.494H62.092z"/></g><path d="M29.265 51.742h0C26.66 49.146 40.77 35.034 42.24 33.607l12.156-12.19c3.786-3.786 8.09-5.742 9.516-4.315h0c1.427 1.427-.517 5.73-4.314 9.517L47.41 38.81c-1.438 1.427-15.537 15.54-18.143 12.933z"/><path d="M26.816 54.203L14.48 50.944l3.82-3.82 13.942 1.652-5.426 5.427z"/><path d="M26.816 54.202l3.247 12.326 3.82-3.8-1.64-13.944-5.426 5.427zm15.392-15.404l-25.2-12.55 2.438-2.438 32.2 5.562L42.22 38.8z"/><path d="M42.208 38.798l12.56 25.213 2.427-2.427-5.55-32.214-9.437 9.427zM27.56 20.744l1.787 1.788-4.314 4.314-1.787-1.788z"/><path d="M38.035 22.306l1.787 1.788-4.314 4.314-1.787-1.788zM55.957 57.77l-1.787-1.8 4.314-4.314 1.787 1.788zM54.4 47.286l-1.787-1.788 4.314-4.314 1.787 1.788z"/></g></symbol></svg>