<svg xmlns="http://www.w3.org/2000/svg" xmlns:xlink="http://www.w3.org/1999/xlink" viewBox="0 0 85 85" fill="#fff" fill-rule="evenodd" stroke="#000" stroke-linecap="round" stroke-linejoin="round"><use xlink:href="#A" x="2.5" y="2.5"/><symbol id="A" overflow="visible"><g stroke="none"><path d="M10.223 23.27c0-5.677 4.57-10.247 10.246-10.247h39.05c5.676 0 10.246 4.57 10.246 10.247v39.056c0 5.677-4.57 10.247-10.246 10.247H20.47c-5.676 0-10.246-4.57-10.246-10.247z" fill="#19486f"/><g fill="#2e73b8"><path d="M10.223 20.483c0-5.677 4.57-10.247 10.246-10.247h39.05c5.676 0 10.246 4.57 10.246 10.247V59.54c0 5.677-4.57 10.247-10.246 10.247H20.47c-5.676 0-10.246-4.57-10.246-10.247z"/><path d="M51.23 0h4.494v15.337H51.23zM24.266 0h4.494v15.337h-4.494zm20.222 0h4.494v15.337h-4.494zm-13.48 0H35.5v15.337h-4.494zm6.74 0h4.494v15.337h-4.494zM0 51.236h20.334v4.494H0zM0 31h20.334v4.494H0zm0 13.484h20.334v4.494H0zm0-6.74h20.334v4.494H0zM0 24.27h20.334v4.494H0zm24.266 38.067h4.494V80h-4.494zm26.964 0h4.494V80H51.23zm-20.223 0H35.5V80h-4.494zm13.48 0h4.494V80h-4.494zm-6.74 0h4.494V80h-4.494zm24.344-17.843H80v4.494H62.092zm0-20.224H80v4.494H62.092zm0 13.483H80v4.494H62.092zm0-6.743H80v4.494H62.092zm0 20.226H80v4.494H62.092z"/></g><path d="M17.47 31.225a2.76 2.76 0 0 1 2.764-2.764h39.13a2.76 2.76 0 0 1 2.764 2.764v21.72a2.76 2.76 0 0 1-2.764 2.764h-39.13a2.76 2.76 0 0 1-2.764-2.764z"/><path d="M43.364 53.326A11.24 11.24 0 0 1 32.13 42.09a11.24 11.24 0 0 1 11.234-11.236A11.24 11.24 0 0 1 54.599 42.09a11.24 11.24 0 0 1-11.234 11.236zm0-19.1c4.343 0 7.864 3.52 7.864 7.865s-3.52 7.865-7.864 7.865S35.5 46.434 35.5 42.1s3.52-7.865 7.864-7.865h0zM37.467 42.1c0-3.268 2.63-5.9 5.898-5.9s5.898 2.63 5.898 5.9-2.63 5.9-5.898 5.9-5.898-2.63-5.898-5.9zM21.03 32.112h7.17v3.37h-7.17z" fill="#2e73b8"/><path d="M52.914 27.247H33.816L36.355 22h14.02l2.54 5.247z"/></g></symbol></svg>