<svg xmlns="http://www.w3.org/2000/svg" xmlns:xlink="http://www.w3.org/1999/xlink" viewBox="0 0 85 85" fill="#fff" fill-rule="evenodd" stroke="#000" stroke-linecap="round" stroke-linejoin="round"><use xlink:href="#A" x="2.5" y="2.5"/><symbol id="A" overflow="visible"><g stroke="none"><path d="M10.223 23.27c0-5.677 4.57-10.247 10.246-10.247h39.05c5.676 0 10.246 4.57 10.246 10.247v39.056c0 5.677-4.57 10.247-10.246 10.247H20.47c-5.676 0-10.246-4.57-10.246-10.247z" fill="#19486f"/><g fill="#2e73b8"><path d="M10.223 20.483c0-5.677 4.57-10.247 10.246-10.247h39.05c5.676 0 10.246 4.57 10.246 10.247V59.54c0 5.677-4.57 10.247-10.246 10.247H20.47c-5.676 0-10.246-4.57-10.246-10.247z"/><path d="M51.23 0h4.494v15.337H51.23zM24.266 0h4.494v15.337h-4.494zm20.222 0h4.494v15.337h-4.494zm-13.48 0H35.5v15.337h-4.494zm6.74 0h4.494v15.337h-4.494zM0 51.236h20.334v4.494H0zM0 31h20.334v4.494H0zm0 13.484h20.334v4.494H0zm0-6.74h20.334v4.494H0zM0 24.27h20.334v4.494H0zm24.266 38.067h4.494V80h-4.494zm26.964 0h4.494V80H51.23zm-20.223 0H35.5V80h-4.494zm13.48 0h4.494V80h-4.494zm-6.74 0h4.494V80h-4.494zm24.344-17.843H80v4.494H62.092zm0-20.224H80v4.494H62.092zm0 13.483H80v4.494H62.092zm0-6.743H80v4.494H62.092zm0 20.226H80v4.494H62.092z"/></g><path d="M49.5 49.697L22.94 47.37a1.35 1.35 0 0 1-1.202-1.124l-2.494-13.854a1.35 1.35 0 0 1 .249-1.042c.223-.298.56-.5.93-.53l33.14-3.45a1.35 1.35 0 0 1 1.449 1.607L50.948 48.63a1.35 1.35 0 0 1-1.438 1.068z"/><use xlink:href="#C"/><use xlink:href="#C" x="29.5"/><g fill="#2e73b8"><use xlink:href="#D"/><use xlink:href="#D" x="5.673"/><use xlink:href="#D" x="11.347"/><use xlink:href="#E"/><use xlink:href="#E" y="5.258"/><use xlink:href="#E" y="10.516"/><use xlink:href="#D" x="17.065"/><path d="M46.735 52.202a.56.56 0 0 1-.562-.562V27.416a.56.56 0 1 1 1.123 0V51.64a.56.56 0 0 1-.562.562z"/></g><path d="M54.88 56.854H22.862c-.93 0-1.685-.755-1.685-1.685s.755-1.685 1.685-1.685H51.5l-3.472-4.63c-.292-.388-.403-.884-.303-1.36l5.74-27.618c.115-.563.508-1.03 1.045-1.236l6.493-2.483c.568-.244 1.225-.158 1.7.226s.722 1.002.616 1.61-.537 1.112-1.124 1.31L56.6 21.45l-5.37 26.023 5.033 6.742c.383.51.444 1.194.16 1.765s-.87.932-1.507.932z"/><path d="M50.106 50.686l-27.3-1.63c-1.378-.105-2.513-1.124-2.764-2.483l-2.46-13.876c-.148-.83.056-1.685.563-2.358s1.272-1.106 2.11-1.192l33.14-3.45.348 3.37-32.77 3.37 2.37 13.247 26.963 1.618z"/></g></symbol><defs ><path id="C" d="M20.74 61.404c0-1.93 1.553-3.483 3.483-3.483s3.483 1.553 3.483 3.483-1.553 3.483-3.483 3.483-3.483-1.553-3.483-3.483z"/><path id="D" d="M24.053 52.865a.56.56 0 0 1-.562-.562V27.37a.56.56 0 1 1 1.123 0v24.933a.56.56 0 0 1-.562.562z"/><path id="E" d="M64.43 34.102H15.953a.56.56 0 1 1 0-1.124H64.43a.56.56 0 1 1 0 1.124z"/></defs></svg>