<svg xmlns="http://www.w3.org/2000/svg" xmlns:xlink="http://www.w3.org/1999/xlink" viewBox="0 0 85 85" fill="#fff" fill-rule="evenodd" stroke="#000" stroke-linecap="round" stroke-linejoin="round"><use xlink:href="#A" x="2.5" y="2.5"/><symbol id="A" overflow="visible"><g stroke="none"><path d="M10.223 23.27c0-5.677 4.57-10.247 10.246-10.247h39.05c5.676 0 10.246 4.57 10.246 10.247v39.056c0 5.677-4.57 10.247-10.246 10.247H20.47c-5.676 0-10.246-4.57-10.246-10.247z" fill="#19486f"/><g fill="#2e73b8"><path d="M10.223 20.483c0-5.677 4.57-10.247 10.246-10.247h39.05c5.676 0 10.246 4.57 10.246 10.247V59.54c0 5.677-4.57 10.247-10.246 10.247H20.47c-5.676 0-10.246-4.57-10.246-10.247z"/><path d="M51.23 0h4.494v15.337H51.23zM24.266 0h4.494v15.337h-4.494zm20.222 0h4.494v15.337h-4.494zm-13.48 0H35.5v15.337h-4.494zm6.74 0h4.494v15.337h-4.494zM0 51.236h20.334v4.494H0zM0 31h20.334v4.494H0zm0 13.484h20.334v4.494H0zm0-6.74h20.334v4.494H0zM0 24.27h20.334v4.494H0zm24.266 38.067h4.494V80h-4.494zm26.964 0h4.494V80H51.23zm-20.223 0H35.5V80h-4.494zm13.48 0h4.494V80h-4.494zm-6.74 0h4.494V80h-4.494zm24.344-17.843H80v4.494H62.092zm0-20.224H80v4.494H62.092zm0 13.483H80v4.494H62.092zm0-6.743H80v4.494H62.092zm0 20.226H80v4.494H62.092zM27.266 40.17l3.18-9 17.413 1.876 6.74 14.416-21.716 5.056-5.617-12.36z"/><path d="M16.436 48.54c0-4.805 3.868-8.674 8.673-8.674s8.673 3.87 8.673 8.674-3.868 8.674-8.673 8.674-8.673-3.87-8.673-8.674z"/></g><path d="M25.11 58.9a10.36 10.36 0 0 1 .045-20.719A10.36 10.36 0 0 1 35.5 48.54a10.37 10.37 0 0 1-10.392 10.359zm0-17.348a6.99 6.99 0 0 1 7.021 6.955 6.99 6.99 0 0 1-6.954 7.022 6.99 6.99 0 0 1-7.021-6.955 6.99 6.99 0 0 1 6.954-7.022h0z"/><path d="M46.207 48.54c0-3.508 2.113-6.67 5.354-8.014a8.67 8.67 0 0 1 9.452 1.88c2.48 2.48 3.223 6.212 1.88 9.453s-4.505 5.355-8.013 5.355c-4.8 0-8.673-3.883-8.673-8.674" fill="#2e73b8"/><path d="M54.88 58.9a10.36 10.36 0 0 1-7.324-17.685 10.36 10.36 0 0 1 17.682 7.325c-.006 5.72-4.64 10.353-10.358 10.36zm0-17.348a6.99 6.99 0 0 1 6.988 6.989 6.99 6.99 0 0 1-6.988 6.989 6.99 6.99 0 0 1-6.988-6.989 6.99 6.99 0 0 1 6.988-6.989h0z"/><path d="M25.11 50.225c-.534-.001-1.035-.256-1.352-.685s-.41-.984-.255-1.494l5.336-17.36c.2-.648.766-1.114 1.44-1.182s1.324.273 1.65.868l8 14.607 6.426-12.64a1.63 1.63 0 0 1 1.494-.966c.647.015 1.227.4 1.494.99l7.066 15.506c.237.522.192 1.13-.12 1.61s-.846.772-1.42.77H39.994c-.264.001-.525-.057-.764-.17h0c-.3-.155-.548-.398-.708-.697l-7.64-13.876-4.168 13.483c-.2.724-.855 1.228-1.606 1.236zm17.638-3.37h9.527l-4.494-9.9z"/><path d="M57.498 50.225H37.276L47.97 29.17zm-14.75-3.37h9.527l-4.494-9.9z"/><path d="M47.858 34.74h-.18L30.3 32.865a7.21 7.21 0 0 1-4.921-2.169c-.823-1.02-1.16-2.35-.92-3.64a5.09 5.09 0 0 1 1.685-3.371 4.91 4.91 0 0 1 3.977-.955 1.7 1.7 0 1 1-.472 3.371c-.417-.168-.9-.113-1.258.146s-.58.686-.562 1.135v.18a1.19 1.19 0 0 0 .191 1.045 4.02 4.02 0 0 0 2.483.933l17.526 1.876a1.69 1.69 0 0 1 1.595 1.775 1.69 1.69 0 0 1-1.775 1.596z"/><path d="M47.723 36.707c-.93 0-1.685-.754-1.685-1.685v-5.416c0-.93.755-1.685 1.685-1.685s1.685.755 1.685 1.685v5.404c.003.45-.173.88-.5 1.2s-.747.498-1.195.498z"/><path d="M37.545 48.54c0-1.357 1.092-2.45 2.45-2.45s2.45 1.093 2.45 2.45-1.092 2.45-2.45 2.45-2.45-1.092-2.45-2.45z" fill="#2e73b8"/><path d="M39.994 52.675c-2.283 0-4.134-1.85-4.134-4.135s1.85-4.135 4.134-4.135 4.134 1.85 4.134 4.135c-.006 2.28-1.853 4.13-4.134 4.135zm0-4.9c.422 0 .764.342.764.764s-.342.764-.764.764-.764-.342-.764-.764.342-.764.764-.764h0zm9.426-17.393h-5.45c-.93 0-1.685-.755-1.685-1.685s.755-1.685 1.685-1.685h5.45c.36 0 .36-.135.36-.37 0-.93.755-1.685 1.685-1.685s1.685.755 1.685 1.685c.018.996-.368 1.956-1.072 2.662s-1.663 1.095-2.658 1.08z"/></g></symbol></svg>