<svg xmlns="http://www.w3.org/2000/svg" xmlns:xlink="http://www.w3.org/1999/xlink" viewBox="0 0 85 85" fill="#fff" fill-rule="evenodd" stroke="#000" stroke-linecap="round" stroke-linejoin="round"><use xlink:href="#A" x="2.5" y="2.5"/><symbol id="A" overflow="visible"><g stroke="none"><path d="M10.223 23.27c0-5.677 4.57-10.247 10.246-10.247h39.05c5.676 0 10.246 4.57 10.246 10.247v39.056c0 5.677-4.57 10.247-10.246 10.247H20.47c-5.676 0-10.246-4.57-10.246-10.247z" fill="#19486f"/><g fill="#2e73b8"><path d="M10.223 20.483c0-5.677 4.57-10.247 10.246-10.247h39.05c5.676 0 10.246 4.57 10.246 10.247V59.54c0 5.677-4.57 10.247-10.246 10.247H20.47c-5.676 0-10.246-4.57-10.246-10.247z"/><path d="M51.23 0h4.494v15.337H51.23zM24.266 0h4.494v15.337h-4.494zm20.222 0h4.494v15.337h-4.494zm-13.48 0H35.5v15.337h-4.494zm6.74 0h4.494v15.337h-4.494zM0 51.236h20.334v4.494H0zM0 31h20.334v4.494H0zm0 13.484h20.334v4.494H0zm0-6.74h20.334v4.494H0zM0 24.27h20.334v4.494H0zm24.266 38.067h4.494V80h-4.494zm26.964 0h4.494V80H51.23zm-20.223 0H35.5V80h-4.494zm13.48 0h4.494V80h-4.494zm-6.74 0h4.494V80h-4.494zm24.344-17.843H80v4.494H62.092zm0-20.224H80v4.494H62.092zm0 13.483H80v4.494H62.092zm0-6.743H80v4.494H62.092zm0 20.226H80v4.494H62.092z"/></g><path d="M38.31 30.81h3.37v36.517h-3.37z"/><path d="M59.43 30.63c-13.537-1.27-16.75-1.573-18.1-.854 0-1.54-1.674-4.27-8.864-15.73l-.932-1.494-2.966 1.596.73 1.595c5.617 12.36 7 15.28 8.313 16.1-1.348.742-2.853 3.573-9.235 15.573l-.83 1.562L30.4 50.73l1.01-1.427c7.864-11.08 9.73-13.708 9.785-15.247.685.416 1.887.584 4.786.584 2.674 0 6.797-.146 13.302-.37l1.775-.056.1-3.37z"/><path d="M36.062 31.933c0-2.18 1.754-3.933 3.932-3.933s3.932 1.754 3.932 3.933-1.754 3.933-3.932 3.933-3.932-1.754-3.932-3.933z"/><path d="M38.87 31.933a1.12 1.12 0 1 1 2.247 0 1.12 1.12 0 1 1-2.247 0z" fill="#2e73b8"/></g></symbol></svg>