<svg xmlns="http://www.w3.org/2000/svg" xmlns:xlink="http://www.w3.org/1999/xlink" viewBox="0 0 85 85" fill="#fff" fill-rule="evenodd" stroke="#000" stroke-linecap="round" stroke-linejoin="round"><use xlink:href="#A" x="2.5" y="2.5"/><symbol id="A" overflow="visible"><g stroke="none"><path d="M10.223 23.27c0-5.677 4.57-10.247 10.246-10.247h39.05c5.676 0 10.246 4.57 10.246 10.247v39.056c0 5.677-4.57 10.247-10.246 10.247H20.47c-5.676 0-10.246-4.57-10.246-10.247z" fill="#19486f"/><g fill="#2e73b8"><path d="M10.223 20.483c0-5.677 4.57-10.247 10.246-10.247h39.05c5.676 0 10.246 4.57 10.246 10.247V59.54c0 5.677-4.57 10.247-10.246 10.247H20.47c-5.676 0-10.246-4.57-10.246-10.247z"/><path d="M51.23 0h4.494v15.337H51.23zM24.266 0h4.494v15.337h-4.494zm20.222 0h4.494v15.337h-4.494zm-13.48 0H35.5v15.337h-4.494zm6.74 0h4.494v15.337h-4.494zM0 51.236h20.334v4.494H0zM0 31h20.334v4.494H0zm0 13.484h20.334v4.494H0zm0-6.74h20.334v4.494H0zM0 24.27h20.334v4.494H0zm24.266 38.067h4.494V80h-4.494zm26.964 0h4.494V80H51.23zm-20.223 0H35.5V80h-4.494zm13.48 0h4.494V80h-4.494zm-6.74 0h4.494V80h-4.494zm24.344-17.843H80v4.494H62.092zm0-20.224H80v4.494H62.092zm0 13.483H80v4.494H62.092zm0-6.743H80v4.494H62.092zm0 20.226H80v4.494H62.092z"/></g><path d="M26.85 29.472a2.61 2.61 0 0 1 2.618-2.618h21.065a2.61 2.61 0 0 1 2.618 2.618V50.54a2.61 2.61 0 0 1-2.618 2.618H29.468a2.61 2.61 0 0 1-2.618-2.618z"/><g fill="#2e73b8"><path d="M56.655 35.506H33.568c-.93 0-1.685-.755-1.685-1.685s.754-1.685 1.685-1.685h23.087c.93 0 1.685.755 1.685 1.685s-.755 1.685-1.685 1.685zM46.42 47.865H23.334c-.93 0-1.685-.755-1.685-1.685s.755-1.685 1.685-1.685H46.42c.93 0 1.685.755 1.685 1.685s-.754 1.685-1.685 1.685z"/><path d="M29.097 33.854a4.471 4.471 0 1 1 8.943 0 4.471 4.471 0 1 1-8.943 0zM41.95 46.146a4.471 4.471 0 1 1 8.943 0 4.471 4.471 0 1 1-8.943 0z"/></g></g></symbol></svg>