<svg xmlns="http://www.w3.org/2000/svg" xmlns:xlink="http://www.w3.org/1999/xlink" viewBox="0 0 85 85" fill="#fff" fill-rule="evenodd" stroke="#000" stroke-linecap="round" stroke-linejoin="round"><use xlink:href="#A" x="2.5" y="2.5"/><symbol id="A" overflow="visible"><g stroke="none"><path d="M10.223 23.27c0-5.677 4.57-10.247 10.246-10.247h39.05c5.676 0 10.246 4.57 10.246 10.247v39.056c0 5.677-4.57 10.247-10.246 10.247H20.47c-5.676 0-10.246-4.57-10.246-10.247z" fill="#19486f"/><g fill="#2e73b8"><path d="M10.223 20.483c0-5.677 4.57-10.247 10.246-10.247h39.05c5.676 0 10.246 4.57 10.246 10.247V59.54c0 5.677-4.57 10.247-10.246 10.247H20.47c-5.676 0-10.246-4.57-10.246-10.247z"/><path d="M51.23 0h4.494v15.337H51.23zM24.266 0h4.494v15.337h-4.494zm20.222 0h4.494v15.337h-4.494zm-13.48 0H35.5v15.337h-4.494zm6.74 0h4.494v15.337h-4.494zM0 51.236h20.334v4.494H0zM0 31h20.334v4.494H0zm0 13.484h20.334v4.494H0zm0-6.74h20.334v4.494H0zM0 24.27h20.334v4.494H0zm24.266 38.067h4.494V80h-4.494zm26.964 0h4.494V80H51.23zm-20.223 0H35.5V80h-4.494zm13.48 0h4.494V80h-4.494zm-6.74 0h4.494V80h-4.494zm24.344-17.843H80v4.494H62.092zm0-20.224H80v4.494H62.092zm0 13.483H80v4.494H62.092zm0-6.743H80v4.494H62.092zm0 20.226H80v4.494H62.092z"/></g><path d="M54.8 33.26l-.292-18.1a.56.56 0 0 0-.562-.551h-4.325a.56.56 0 0 0-.562.551l-.258 15.73-27.31-10.753c-.346-.138-.738-.095-1.047.114s-.493.558-.492.93v42.697c0 .62.503 1.124 1.123 1.124h37.826c.62 0 1.123-.503 1.123-1.124v-27.83c0-.46-.28-.874-.708-1.045z"/><g fill="#2e73b8"><path d="M37.41 50.18a.56.56 0 0 1 .562-.562h4.18a.56.56 0 0 1 .562.562v12.528a.56.56 0 0 1-.562.562h-4.18a.56.56 0 0 1-.562-.562z"/><use xlink:href="#C"/><use xlink:href="#D"/><use xlink:href="#C" y="-10.652"/><use xlink:href="#C" x="10.673" y="-10.652"/><use xlink:href="#D" y="-10.652"/></g></g></symbol><defs ><path id="C" d="M26.603 50.18a.56.56 0 0 1 .562-.562h4.303a.56.56 0 0 1 .562.562v5.08a.56.56 0 0 1-.562.562h-4.303a.56.56 0 0 1-.562-.562z"/><path id="D" d="M48.117 50.18a.56.56 0 0 1 .562-.562h4.303a.56.56 0 0 1 .562.562v5.08a.56.56 0 0 1-.562.562H48.68a.56.56 0 0 1-.562-.562z"/></defs></svg>