<svg xmlns="http://www.w3.org/2000/svg" xmlns:xlink="http://www.w3.org/1999/xlink" viewBox="0 0 85 85" fill="#fff" fill-rule="evenodd" stroke="#000" stroke-linecap="round" stroke-linejoin="round"><use xlink:href="#A" x="2.5" y="2.5"/><symbol id="A" overflow="visible"><g stroke="none"><path d="M10.223 23.27c0-5.677 4.57-10.247 10.246-10.247h39.05c5.676 0 10.246 4.57 10.246 10.247v39.056c0 5.677-4.57 10.247-10.246 10.247H20.47c-5.676 0-10.246-4.57-10.246-10.247z" fill="#19486f"/><g fill="#2e73b8"><path d="M10.223 20.483c0-5.677 4.57-10.247 10.246-10.247h39.05c5.676 0 10.246 4.57 10.246 10.247V59.54c0 5.677-4.57 10.247-10.246 10.247H20.47c-5.676 0-10.246-4.57-10.246-10.247z"/><path d="M51.23 0h4.494v15.337H51.23zM24.266 0h4.494v15.337h-4.494zm20.222 0h4.494v15.337h-4.494zm-13.48 0H35.5v15.337h-4.494zm6.74 0h4.494v15.337h-4.494zM0 51.236h20.334v4.494H0zM0 31h20.334v4.494H0zm0 13.484h20.334v4.494H0zm0-6.74h20.334v4.494H0zM0 24.27h20.334v4.494H0zm24.266 38.067h4.494V80h-4.494zm26.964 0h4.494V80H51.23zm-20.223 0H35.5V80h-4.494zm13.48 0h4.494V80h-4.494zm-6.74 0h4.494V80h-4.494zm24.344-17.843H80v4.494H62.092zm0-20.224H80v4.494H62.092zm0 13.483H80v4.494H62.092zm0-6.743H80v4.494H62.092zm0 20.226H80v4.494H62.092z"/></g><path d="M56.397 44.9c0-.292 0-.573-.1-.865s-.067-.36-.1-.54l-.135-.81c-.045-.27-.1-.393-.135-.584l-.18-.786-.18-.596c-.067-.19-.146-.517-.225-.775l-.213-.607-.27-.764-.247-.618-.303-.742c-.1-.247-.19-.416-.292-.618l-.303-.652a5.19 5.19 0 0 1 0-4.697l2.82-5.528-1.54-1.54c-1.376.822-2.905 1.357-4.494 1.573-4.494.494-9.257-1.427-10.46-3.247h0c-1.202 1.83-5.954 3.742-10.46 3.247-1.59-.216-3.117-.75-4.494-1.573h0l-1.54 1.54 2.82 5.528a5.19 5.19 0 0 1 0 4.697c-.112.214-.202.438-.303.652l-.292.618c-.1.202-.202.494-.303.742l-.247.618-.483 1.37a13.85 13.85 0 0 0-.225.775c-.067.258-.27.393-.27.584s-.123.528-.18.787-.1.393-.135.584l-.135.81c-.045.27-.067.36-.1.54s-.067.573-.1.865 0 .315 0 .472q0 .663 0 1.303c0 7.944 5.617 10.72 13.077 11.303 1.124.1 3.37 1.416 3.37 2.517 0-1.124 2.314-2.427 3.37-2.517 7.47-.584 13.077-3.37 13.077-11.303q0-.64 0-1.303c-.1-.146-.123-.303-.135-.46z"/></g></symbol></svg>