<svg xmlns="http://www.w3.org/2000/svg" xmlns:xlink="http://www.w3.org/1999/xlink" viewBox="0 0 85 85" fill="#fff" fill-rule="evenodd" stroke="#000" stroke-linecap="round" stroke-linejoin="round"><use xlink:href="#A" x="2.5" y="2.5"/><symbol id="A" overflow="visible"><g stroke="none"><path d="M10.223 23.27c0-5.677 4.57-10.247 10.246-10.247h39.05c5.676 0 10.246 4.57 10.246 10.247v39.056c0 5.677-4.57 10.247-10.246 10.247H20.47c-5.676 0-10.246-4.57-10.246-10.247z" fill="#19486f"/><g fill="#2e73b8"><path d="M10.223 20.483c0-5.677 4.57-10.247 10.246-10.247h39.05c5.676 0 10.246 4.57 10.246 10.247V59.54c0 5.677-4.57 10.247-10.246 10.247H20.47c-5.676 0-10.246-4.57-10.246-10.247z"/><path d="M51.23 0h4.494v15.337H51.23zM24.266 0h4.494v15.337h-4.494zm20.222 0h4.494v15.337h-4.494zm-13.48 0H35.5v15.337h-4.494zm6.74 0h4.494v15.337h-4.494zM0 51.236h20.334v4.494H0zM0 31h20.334v4.494H0zm0 13.484h20.334v4.494H0zm0-6.74h20.334v4.494H0zM0 24.27h20.334v4.494H0zm24.266 38.067h4.494V80h-4.494zm26.964 0h4.494V80H51.23zm-20.223 0H35.5V80h-4.494zm13.48 0h4.494V80h-4.494zm-6.74 0h4.494V80h-4.494zm24.344-17.843H80v4.494H62.092zm0-20.224H80v4.494H62.092zm0 13.483H80v4.494H62.092zm0-6.743H80v4.494H62.092zm0 20.226H80v4.494H62.092z"/></g><path d="M46.6 26.517l3.37 23.798c1.123 7.54.157 14.528-9.853 14.528h-7.28c-9.47 0-10.93-7-9.853-14.528l3.37-23.798zM26.423 24.27a9.17 9.17 0 0 1 8.83-8.067h2.494a9.17 9.17 0 0 1 8.864 8.067z"/><path d="M30.917 46.168l-7.47 3.618-8.538-21 4.842-2.348 11.167 19.73zm18.975 5.844h-1.8v-3.37h1.82a4.71 4.71 0 0 0 4.696-4.708v-4.9a4.71 4.71 0 0 0-1.379-3.329c-.883-.883-2.08-1.38-3.328-1.38h-3.37v-3.37h3.37a8.09 8.09 0 0 1 8.078 8.079v4.9a8.09 8.09 0 0 1-8.078 8.079zm-9.312 6.505h15.706v3.37H40.58z"/><path d="M62.464 64.933h-2.63a4.67 4.67 0 0 1-3.317-1.381c-.877-.884-1.366-2.08-1.357-3.327V60.1c0-2.58 2.092-4.674 4.673-4.674h2.63z"/><use xlink:href="#C"/><use xlink:href="#C" y="4.686"/></g></symbol><defs ><path id="C" d="M65.52 59.55h-6.18c-.93 0-1.685-.755-1.685-1.685s.755-1.685 1.685-1.685h6.18c.93 0 1.685.755 1.685 1.685s-.754 1.685-1.685 1.685z"/></defs></svg>