<svg xmlns="http://www.w3.org/2000/svg" xmlns:xlink="http://www.w3.org/1999/xlink" viewBox="0 0 85 85" fill="#fff" fill-rule="evenodd" stroke="#000" stroke-linecap="round" stroke-linejoin="round"><use xlink:href="#A" x="2.5" y="2.5"/><symbol id="A" overflow="visible"><g stroke="none"><path d="M10.223 23.27c0-5.677 4.57-10.247 10.246-10.247h39.05c5.676 0 10.246 4.57 10.246 10.247v39.056c0 5.677-4.57 10.247-10.246 10.247H20.47c-5.676 0-10.246-4.57-10.246-10.247z" fill="#19486f"/><g fill="#2e73b8"><path d="M10.223 20.483c0-5.677 4.57-10.247 10.246-10.247h39.05c5.676 0 10.246 4.57 10.246 10.247V59.54c0 5.677-4.57 10.247-10.246 10.247H20.47c-5.676 0-10.246-4.57-10.246-10.247z"/><path d="M51.23 0h4.494v15.337H51.23zM24.266 0h4.494v15.337h-4.494zm20.222 0h4.494v15.337h-4.494zm-13.48 0H35.5v15.337h-4.494zm6.74 0h4.494v15.337h-4.494zM0 51.236h20.334v4.494H0zM0 31h20.334v4.494H0zm0 13.484h20.334v4.494H0zm0-6.74h20.334v4.494H0zM0 24.27h20.334v4.494H0zm24.266 38.067h4.494V80h-4.494zm26.964 0h4.494V80H51.23zm-20.223 0H35.5V80h-4.494zm13.48 0h4.494V80h-4.494zm-6.74 0h4.494V80h-4.494zm24.344-17.843H80v4.494H62.092zm0-20.224H80v4.494H62.092zm0 13.483H80v4.494H62.092zm0-6.743H80v4.494H62.092zm0 20.226H80v4.494H62.092z"/></g><path d="M15.784 49.113h-.73c-.93 0-1.685-.755-1.685-1.685s.755-1.685 1.685-1.685h.742c.93 0 1.685.755 1.685 1.685s-.754 1.685-1.685 1.685zm50.6.325h-.742c-.93 0-1.685-.755-1.685-1.685s.755-1.685 1.685-1.685h.742c.93 0 1.685.755 1.685 1.685s-.754 1.685-1.685 1.685z"/><path d="M59.52 48.99h4.303v-3.82c0-7.865-9.403-7.865-9.403-7.865l-3.56-8.337H33.164l-2.438 8.056-13.39 3.708v8.258h3.213" fill="#2e73b8"/><path d="M63.823 50.674H59.52c-.93 0-1.685-.755-1.685-1.685s.755-1.685 1.685-1.685h2.618v-2.135c0-6.01-6.932-6.225-7.73-6.225-.674-.003-1.283-.404-1.55-1.022l-3.123-7.315H34.378L32.31 37.46c-.163.54-.585.96-1.123 1.124l-12.156 3.37v5.348h1.528c.93 0 1.685.754 1.685 1.685s-.755 1.685-1.685 1.685h-3.224c-.93 0-1.685-.755-1.685-1.685V40.73c.003-.755.508-1.417 1.236-1.618l12.493-3.494 2.168-7.168c.214-.715.872-1.204 1.618-1.202H50.86c.675 0 1.285.402 1.55 1.022l3.146 7.36c3.977.36 9.954 2.652 9.954 9.54v3.82c0 .93-.754 1.685-1.685 1.685z"/><use xlink:href="#C" fill="#2e73b8"/><path d="M25.4 55.1a6.11 6.11 0 0 1-5.662-3.758c-.953-2.283-.436-4.916 1.3-6.67a6.11 6.11 0 0 1 6.663-1.335c2.287.945 3.778 3.175 3.778 5.65 0 3.367-2.723 6.1-6.09 6.112zm0-8.843a2.74 2.74 0 1 1-.045 5.483 2.74 2.74 0 1 1 .045-5.483h0z"/><use xlink:href="#C" x="29.042" fill="#2e73b8"/><path d="M54.408 55.1a6.11 6.11 0 0 1-5.646-3.773c-.946-2.284-.423-4.913 1.325-6.66a6.11 6.11 0 0 1 6.66-1.325c2.284.946 3.773 3.175 3.773 5.647 0 3.376-2.736 6.112-6.112 6.112zm0-8.843a2.74 2.74 0 0 1 0 5.483 2.74 2.74 0 0 1 0-5.483h0z"/><path d="M49.263 50.674H30.59c-.93 0-1.685-.755-1.685-1.685s.755-1.685 1.685-1.685h18.67c.93 0 1.685.755 1.685 1.685s-.754 1.685-1.685 1.685z"/></g></symbol><defs ><path id="C" d="M20.94 48.99c0-2.453 1.974-4.427 4.426-4.427s4.426 1.974 4.426 4.427-1.974 4.427-4.426 4.427-4.426-1.974-4.426-4.427z"/></defs></svg>