<svg xmlns="http://www.w3.org/2000/svg" xmlns:xlink="http://www.w3.org/1999/xlink" viewBox="0 0 85 85" fill="#fff" fill-rule="evenodd" stroke="#000" stroke-linecap="round" stroke-linejoin="round"><use xlink:href="#A" x="2.5" y="2.5"/><symbol id="A" overflow="visible"><g stroke="none"><g fill="#2e73b8"><use xlink:href="#C"/><path d="M51.23 0h4.494v15.337H51.23z"/><use xlink:href="#D"/><use xlink:href="#D" x="20.222"/><path d="M31.007 0H35.5v15.337h-4.494z"/><use xlink:href="#D" x="13.482"/><use xlink:href="#E"/><use xlink:href="#E" y="-20.226"/><use xlink:href="#E" y="-6.742"/><use xlink:href="#E" y="-13.483"/><use xlink:href="#E" y="-26.966"/><use xlink:href="#F"/><path d="M51.23 62.337h4.494V80H51.23zm-20.223 0H35.5V80h-4.494z"/><use xlink:href="#F" x="20.222"/><use xlink:href="#F" x="13.482"/><use xlink:href="#G"/><use xlink:href="#G" y="-20.224"/><use xlink:href="#G" y="-6.741"/><use xlink:href="#G" y="-13.484"/><use xlink:href="#G" y="6.742"/></g><path d="M10.223 23.27c0-5.677 4.57-10.247 10.246-10.247h39.05c5.676 0 10.246 4.57 10.246 10.247v39.056c0 5.677-4.57 10.247-10.246 10.247H20.47c-5.676 0-10.246-4.57-10.246-10.247z" fill="#19486f"/><g fill="#2e73b8"><use xlink:href="#C"/><path d="M51.23 0h4.494v15.337H51.23z"/><use xlink:href="#D"/><use xlink:href="#D" x="20.222"/><path d="M31.007 0H35.5v15.337h-4.494z"/><use xlink:href="#D" x="13.482"/><use xlink:href="#E"/><use xlink:href="#E" y="-20.226"/><use xlink:href="#E" y="-6.742"/><use xlink:href="#E" y="-13.483"/><use xlink:href="#E" y="-26.966"/><use xlink:href="#F"/><path d="M51.23 62.337h4.494V80H51.23zm-20.223 0H35.5V80h-4.494z"/><use xlink:href="#F" x="20.222"/><use xlink:href="#F" x="13.482"/><use xlink:href="#G"/><use xlink:href="#G" y="-20.224"/><use xlink:href="#G" y="-6.741"/><use xlink:href="#G" y="-13.484"/><use xlink:href="#G" y="6.742"/></g><path d="M38.87 44.607c2.682 0 5.16-1.43 6.505-3.753h1.2c4.112 0 3.617 4.315 3.617 4.315v3.236H57.7v-7.472a7.52 7.52 0 0 0-7.516-7.517l-4.808-.08a7.54 7.54 0 0 0-2.752-2.753v-4.74h3.797c-2.075-.114-3.666-1.888-3.552-3.964s1.888-3.666 3.963-3.553 3.666 1.888 3.552 3.964-1.888 3.666-3.963 3.553H31.366c2.076.113 3.666 1.888 3.552 3.964s-1.888 3.666-3.963 3.553-3.666-1.888-3.552-3.964 1.888-3.666 3.963-3.553h3.752v4.74a7.54 7.54 0 0 0-2.752 2.753H20.008v7.517h12.358c1.343 2.322 3.822 3.753 6.505 3.753zm14.942 6.517c-2 3.674-3.37 5.685-3.37 8.652a3.371 3.371 0 1 1 6.741 0 3.371 3.371 0 1 1-6.741 0c6.752-2.92 5.078-5 3.37-8.652z"/></g></symbol><defs ><path id="C" d="M10.223 20.483c0-5.677 4.57-10.247 10.246-10.247h39.05c5.676 0 10.246 4.57 10.246 10.247V59.54c0 5.677-4.57 10.247-10.246 10.247H20.47c-5.676 0-10.246-4.57-10.246-10.247z"/><path id="D" d="M24.266 0h4.494v15.337h-4.494z"/><path id="E" d="M0 51.236h20.334v4.494H0z"/><path id="F" d="M24.266 62.337h4.494V80h-4.494z"/><path id="G" d="M62.092 44.494H80v4.494H62.092z"/></defs></svg>