<svg xmlns="http://www.w3.org/2000/svg" xmlns:xlink="http://www.w3.org/1999/xlink" viewBox="0 0 85 85" fill="#fff" fill-rule="evenodd" stroke="#000" stroke-linecap="round" stroke-linejoin="round"><use xlink:href="#A" x="2.5" y="2.5"/><symbol id="A" overflow="visible"><g stroke="none"><path d="M10.223 23.27c0-5.677 4.57-10.247 10.246-10.247h39.05c5.676 0 10.246 4.57 10.246 10.247v39.056c0 5.677-4.57 10.247-10.246 10.247H20.47c-5.676 0-10.246-4.57-10.246-10.247z" fill="#19486f"/><g fill="#2e73b8"><path d="M10.223 20.483c0-5.677 4.57-10.247 10.246-10.247h39.05c5.676 0 10.246 4.57 10.246 10.247V59.54c0 5.677-4.57 10.247-10.246 10.247H20.47c-5.676 0-10.246-4.57-10.246-10.247z"/><path d="M51.23 0h4.494v15.337H51.23zM24.266 0h4.494v15.337h-4.494zm20.222 0h4.494v15.337h-4.494zm-13.48 0H35.5v15.337h-4.494zm6.74 0h4.494v15.337h-4.494zM0 51.236h20.334v4.494H0zM0 31h20.334v4.494H0zm0 13.484h20.334v4.494H0zm0-6.74h20.334v4.494H0zM0 24.27h20.334v4.494H0zm24.266 38.067h4.494V80h-4.494zm26.964 0h4.494V80H51.23zm-20.223 0H35.5V80h-4.494zm13.48 0h4.494V80h-4.494zm-6.74 0h4.494V80h-4.494zm24.345-17.843H80v4.494H62.092zm0-20.224H80v4.494H62.092zm0 13.483H80v4.494H62.092zm0-6.743H80v4.494H62.092zm0 20.226H80v4.494H62.092z"/></g><path d="M16.806 46.824c-3.487-13.012 4.18-26.295 17.19-29.783a24.26 24.26 0 0 1 29.778 17.192c3.487 13.012-4.18 26.295-17.19 29.783a24.26 24.26 0 0 1-29.778-17.192z"/><g fill="#2e73b8"><path d="M35.433 25.034c-.762.001-1.43-.5-1.63-1.247l-.416-1.573a1.69 1.69 0 0 1 1.191-2.067c.9-.242 1.825.3 2.067 1.2l.427 1.573a1.68 1.68 0 0 1-.167 1.28c-.224.387-.592.67-1.024.787a1.71 1.71 0 0 1-.449.056zm9.122 0c-.148 0-.295-.018-.438-.056a1.69 1.69 0 0 1-1.024-.787c-.224-.387-.283-.85-.167-1.28l.427-1.573c.242-.9 1.167-1.433 2.067-1.2a1.69 1.69 0 0 1 1.191 2.067l-.416 1.573c-.2.74-.873 1.253-1.64 1.247zm7.887 4.562a1.69 1.69 0 0 1-1.574-1.03c-.267-.63-.124-1.36.36-1.846l1.123-1.124c.42-.45 1.053-.637 1.65-.484a1.69 1.69 0 0 1 1.216 1.216c.153.596-.033 1.23-.484 1.65L53.6 29.1a1.67 1.67 0 0 1-1.168.494zm-24.896-.001a1.68 1.68 0 0 1-1.19-.494l-1.123-1.123c-.667-.664-.67-1.743-.006-2.4s1.743-.67 2.4-.006l1.123 1.124a1.69 1.69 0 0 1 .365 1.836 1.68 1.68 0 0 1-1.556 1.04zm7.157 25.18a5.291 5.291 0 1 1 10.583 0 5.291 5.291 0 1 1-10.583 0z"/><path d="M39.994 56.46c-.447 0-.875-.178-1.192-.494s-.493-.745-.493-1.192v-24.63c0-.93.754-1.685 1.685-1.685s1.685.755 1.685 1.685v24.63c0 .447-.177.876-.493 1.192s-.745.494-1.192.494z"/><use xlink:href="#C"/><use xlink:href="#D"/><use xlink:href="#C" y="6.023"/><use xlink:href="#D" y="6.024"/><use xlink:href="#C" y="12.034"/><use xlink:href="#D" y="12.035"/><use xlink:href="#C" y="18.056"/></g></g></symbol><defs ><path id="C" d="M36.916 31.27h-1.9a.56.56 0 1 1 0-1.124h1.9a.56.56 0 1 1 0 1.124z"/><path id="D" d="M36.916 34.28H33.41a.56.56 0 1 1 0-1.124h3.516a.56.56 0 1 1 0 1.124z"/></defs></svg>