<svg xmlns="http://www.w3.org/2000/svg" xmlns:xlink="http://www.w3.org/1999/xlink" viewBox="0 0 56 82" fill="#fff" fill-rule="evenodd" stroke="#000" stroke-linecap="round" stroke-linejoin="round"><style><![CDATA[.B{stroke:none}.C{fill:#b0bec5}.D{fill:#cfd8dc}.E{fill:#3e596c}.F{fill:#304b60}.G{fill:#233e51}.H{fill:#1b303f}]]></style><use xlink:href="#A" x=".5" y=".5"/><symbol id="A" overflow="visible"><path d="M18.333 20.87v13.913l18.333-10.435V10.435zm18.26 24.348V80l18.333-10.435V34.783z" class="B C"/><path d="M18.333 69.565L36.667 80V45.218L18.333 34.783V20.87L0 10.435V59.13z" class="B D"/><path d="M0 10.435L18.333 20.87l18.333-10.435L18.333 0z" fill="#eceff1" class="B"/><path d="M1.528 10.3l16.806 9.565L35.14 10.3 18.334.725z" class="B C"/><path d="M2.164 10.652l16.17 9.203 16.17-9.203-16.17-9.203z" fill="#f7f8f9" class="B"/><path d="M34.484 10.653L18.333 1.45V.725L35.14 10.3z" class="B D"/><path d="M18.333 34.783l18.333 10.435L55 34.783 36.666 24.348z" fill="#eceff1" class="B"/><path d="M19.86 34.637l16.806 9.565 16.806-9.565-16.806-9.565z" class="B C"/><path d="M20.498 35l16.17 9.203L52.836 35l-16.17-9.203z" fill="#f7f8f9" class="B"/><path d="M52.818 35l-16.15-9.203v-.725l16.806 9.565z" class="B D"/><g fill="#7696ad"><use xlink:href="#C" class="B"/><use xlink:href="#C" x="4.273" y="-2.415" class="B"/><use xlink:href="#C" x="8.603" y="-4.887" class="B"/><use xlink:href="#C" x="12.644" y="-7.187" class="B"/></g><g fill="#6b8aa0"><use xlink:href="#C" y="5.798" class="B"/><use xlink:href="#C" x="4.273" y="3.382" class="B"/><use xlink:href="#C" x="8.603" y="0.91" class="B"/><use xlink:href="#C" x="12.644" y="-1.39" class="B"/></g><g class="E"><use xlink:href="#C" x="18.335" y="32.318" class="B"/><use xlink:href="#C" x="22.607" y="29.904" class="B"/><use xlink:href="#C" x="26.936" y="27.432" class="B"/><use xlink:href="#C" x="30.977" y="25.132" class="B"/></g><g class="F"><use xlink:href="#C" x="18.335" y="37.682" class="B"/><use xlink:href="#C" x="22.607" y="35.266" class="B"/><use xlink:href="#C" x="26.936" y="32.794" class="B"/><use xlink:href="#C" x="30.977" y="30.494" class="B"/></g><g class="G"><use xlink:href="#C" x="18.335" y="43.188" class="B"/><use xlink:href="#C" x="22.607" y="40.774" class="B"/><use xlink:href="#C" x="26.936" y="38.301" class="B"/><use xlink:href="#C" x="30.977" y="36.001" class="B"/></g><g class="H"><use xlink:href="#C" x="18.335" y="48.261" class="B"/><use xlink:href="#C" x="22.607" y="45.846" class="B"/><use xlink:href="#C" x="26.936" y="43.374" class="B"/><use xlink:href="#C" x="30.977" y="41.074" class="B"/></g><g fill="#4a6578"><use xlink:href="#C" x="18.335" y="26.522" class="B"/><use xlink:href="#C" x="22.607" y="24.108" class="B"/><use xlink:href="#C" x="26.936" y="21.634" class="B"/><use xlink:href="#C" x="30.977" y="19.334" class="B"/><use xlink:href="#D" class="B"/><use xlink:href="#D" x="-4.27" y="-2.416" class="B"/><use xlink:href="#D" x="-8.6" y="-4.888" class="B"/><use xlink:href="#D" x="-12.64" y="-7.19" class="B"/></g><g class="E"><use xlink:href="#D" y="5.796" class="B"/><use xlink:href="#D" x="-4.27" y="3.38" class="B"/><use xlink:href="#D" x="-8.6" y="0.91" class="B"/><use xlink:href="#D" x="-12.64" y="-1.39" class="B"/></g><g class="F"><use xlink:href="#D" y="11.16" class="B"/><use xlink:href="#D" x="-4.27" y="8.744" class="B"/><use xlink:href="#D" x="-8.6" y="6.27" class="B"/><use xlink:href="#D" x="-12.64" y="3.97" class="B"/></g><g class="G"><use xlink:href="#D" y="16.666" class="B"/><use xlink:href="#D" x="-4.27" y="14.25" class="B"/><use xlink:href="#D" x="-8.6" y="11.778" class="B"/><use xlink:href="#D" x="-12.64" y="9.478" class="B"/></g><g class="H"><use xlink:href="#D" y="21.738" class="B"/><use xlink:href="#D" x="-4.27" y="19.323" class="B"/><use xlink:href="#D" x="-8.6" y="16.85" class="B"/><path d="M3.8 52.32l-1.616-.92v3.68L3.8 56z" class="B"/></g><g fill="#4a6578"><use xlink:href="#D" x="17.898" y="10.144" class="B"/><use xlink:href="#D" x="13.626" y="7.73" class="B"/><use xlink:href="#D" x="9.296" y="5.256" class="B"/><use xlink:href="#D" x="5.255" y="2.956" class="B"/></g><g class="E"><use xlink:href="#D" x="17.898" y="15.94" class="B"/><use xlink:href="#D" x="13.626" y="13.526" class="B"/><use xlink:href="#D" x="9.296" y="11.054" class="B"/><use xlink:href="#D" x="5.255" y="8.754" class="B"/></g><g class="F"><use xlink:href="#D" x="17.898" y="21.304" class="B"/><use xlink:href="#D" x="13.626" y="18.888" class="B"/><use xlink:href="#D" x="9.296" y="16.416" class="B"/><use xlink:href="#D" x="5.255" y="14.116" class="B"/></g><g class="G"><use xlink:href="#D" x="17.898" y="26.81" class="B"/><use xlink:href="#D" x="13.626" y="24.396" class="B"/><use xlink:href="#D" x="9.296" y="21.923" class="B"/><use xlink:href="#D" x="5.255" y="19.623" class="B"/></g><g class="H"><use xlink:href="#D" x="17.898" y="31.883" class="B"/><use xlink:href="#D" x="13.626" y="29.468" class="B"/><use xlink:href="#D" x="9.296" y="26.996" class="B"/><use xlink:href="#D" x="5.255" y="24.696" class="B"/></g><g fill="#7696ad"><use xlink:href="#D" y="-16.088" class="B"/><use xlink:href="#D" x="-4.27" y="-18.503" class="B"/><use xlink:href="#D" x="-8.6" y="-20.975" class="B"/><use xlink:href="#D" x="-12.64" y="-23.275" class="B"/></g><g fill="#6b8aa0"><use xlink:href="#D" y="-10.29" class="B"/><use xlink:href="#D" x="-4.27" y="-12.706" class="B"/><use xlink:href="#D" x="-8.6" y="-15.178" class="B"/><use xlink:href="#D" x="-12.64" y="-17.478" class="B"/></g></symbol><defs ><path id="C" d="M20.66 21.392l1.616-.92v3.68l-1.616.92z"/><path id="D" d="M16.44 37.77l-1.616-.92v3.68l1.616.92z"/></defs></svg>