<svg xmlns="http://www.w3.org/2000/svg" xmlns:xlink="http://www.w3.org/1999/xlink" viewBox="0 0 81 67" fill="#fff" fill-rule="evenodd" stroke="#000" stroke-linecap="round" stroke-linejoin="round"><use xlink:href="#A" x=".5" y=".5"/><symbol id="A" overflow="visible"><g stroke="none"><path d="M46.567 21.185c-1.145-.654-2.56-.846-4.143-.52-.976.203-2.016.602-3.093 1.215-1.036.587-2.027 1.326-2.967 2.182l3.81 2.178c.94-.856 1.932-1.594 2.967-2.183 1.078-.613 2.12-1.012 3.093-1.215 1.583-.327 2.998-.135 4.143.52l-3.81-2.177z" fill="#f0a72e"/><path d="M33.072 18.57c-1.322-.756-2.96-.978-4.79-.6-1.13.233-2.334.697-3.58 1.405-2.076 1.18-4.027 2.894-5.717 4.92-3.11 3.73-5.346 8.52-5.886 12.977-.934.208-1.934.6-2.96 1.183-1.79 1.017-3.47 2.494-4.928 4.24C2.09 46.433-.013 51.402 0 55.73c.01 3.154 1.14 5.375 2.966 6.42l3.81 2.178C4.95 63.28 3.818 61.06 3.81 57.907c-.013-4.327 2.09-9.296 5.2-13.033 1.458-1.745 3.137-3.22 4.928-4.238 1.026-.583 2.027-.977 2.96-1.183.54-4.458 2.775-9.247 5.886-12.977 1.692-2.027 3.64-3.74 5.717-4.92 1.248-.71 2.45-1.172 3.58-1.406 1.83-.38 3.466-.157 4.79.6l-3.81-2.178z" fill="#4fc3f7"/><path d="M28.51 21.554c5.893-3.346 10.79-1.224 11.662 4.686.94-.856 1.932-1.594 2.967-2.183 5.616-3.2 10.186-.628 10.204 5.72S48.822 43.86 43.206 47.05L14.013 63.626c-5.625 3.195-10.186.628-10.204-5.718s4.513-14.078 10.138-17.27c1.027-.583 2.027-.976 2.96-1.183.836-6.882 5.705-14.548 11.604-17.9z" fill="#e1f5fe"/><path d="M57.758 3.433c-1.158-.662-2.588-.856-4.2-.525-.987.205-2.038.6-3.128 1.23-1.047.594-2.05 1.34-3 2.207l3.852 2.202c.95-.866 1.953-1.612 3-2.207 1.1-.62 2.142-1.023 3.128-1.23 1.6-.33 3.032-.136 4.2.524l-3.852-2.202zM44.112.8C42.776.025 41.12-.2 39.27.184c-1.142.236-2.36.705-3.62 1.42-2.1 1.193-4.072 2.927-5.78 4.976-3.146 3.77-5.406 8.614-5.952 13.122-.944.2-1.956.607-2.994 1.196-1.8 1.028-3.5 2.52-4.983 4.286-3.155 3.778-5.28 8.802-5.268 13.178.01 3.2 1.153 5.435 3 6.5l3.852 2.202c-1.846-1.055-3-3.3-3-6.5-.013-4.376 2.112-9.4 5.268-13.178 1.475-1.765 3.172-3.257 4.983-4.286 1.038-.6 2.05-.988 2.994-1.197.548-4.508 2.806-9.35 5.952-13.12C35.43 6.733 37.4 5 39.5 3.806c1.262-.717 2.48-1.185 3.62-1.422 1.85-.384 3.505-.16 4.842.607L44.112.8z" fill="#4fc3f7"/><path d="M39.5 3.806C45.458.423 50.41 2.57 51.292 8.544c.95-.866 1.953-1.612 3-2.207 5.678-3.225 10.3-.635 10.317 5.783s-4.573 14.24-10.25 17.464L24.84 46.347c-5.687 3.23-10.3.635-10.317-5.782S19.086 26.33 24.773 23.1c1.038-.6 2.05-.987 2.994-1.196.845-6.958 5.768-14.71 11.733-18.1z" fill="#e1f5fe"/><path d="M73.148 5.828c-1.158-.662-2.588-.856-4.2-.525-.987.205-2.038.6-3.128 1.23-1.047.594-2.05 1.34-3 2.207l3.852 2.202c.95-.866 1.953-1.612 3-2.207 1.1-.62 2.142-1.024 3.128-1.23 1.6-.33 3.032-.136 4.2.524l-3.852-2.202zM59.502 3.184c-1.336-.764-2.992-1-4.842-.605-1.142.236-2.36.705-3.62 1.42-2.1 1.193-4.072 2.927-5.78 4.976-3.146 3.77-5.406 8.614-5.952 13.122-.944.2-1.956.607-2.994 1.196-1.8 1.03-3.5 2.52-4.983 4.286-3.155 3.778-5.28 8.802-5.268 13.178.01 3.2 1.153 5.435 3 6.5l3.852 2.202c-1.846-1.055-3-3.3-3-6.5-.013-4.376 2.112-9.4 5.268-13.178 1.475-1.765 3.172-3.257 4.983-4.286 1.038-.6 2.05-.988 2.994-1.197.548-4.508 2.806-9.35 5.952-13.12 1.7-2.05 3.68-3.783 5.78-4.976 1.262-.717 2.48-1.185 3.62-1.422 1.85-.384 3.505-.16 4.842.607l-3.852-2.202z" fill="#4fc3f7"/><path d="M54.89 6.2c5.96-3.383 10.91-1.237 11.792 4.738.95-.866 1.953-1.612 3-2.207 5.678-3.225 10.3-.635 10.317 5.783s-4.573 14.24-10.25 17.464L40.23 48.742c-5.687 3.23-10.3.635-10.317-5.782s4.564-14.235 10.25-17.464c1.038-.6 2.05-.987 2.994-1.196.845-6.958 5.768-14.71 11.733-18.1z" fill="#e1f5fe"/></g></symbol></svg>