<svg xmlns="http://www.w3.org/2000/svg" xmlns:xlink="http://www.w3.org/1999/xlink" viewBox="0 0 81 56" fill="#fff" fill-rule="evenodd" stroke="#000" stroke-linecap="round" stroke-linejoin="round"><use xlink:href="#A" x=".5" y=".5"/><symbol id="A" overflow="visible"><g stroke="none"><path d="M34.717 46.27V55L80 28.81v-8.73H34.717z" fill="#546e7a"/><path d="M34.717 55L0 34.92V26.2h34.717v20.08z" fill="#cfd8dc"/><path d="M34.717 46.27L80 20.08 45.283 0 0 26.2z" fill="#eceff1"/><path d="M28.17 28.024l1.492-.697 1.607-6.855 4.362-2.556c-.918-.813-.46-1.743.23-2.207 1.377-.697 2.984-.35 4.362.35 1.722 1.046 1.607 2.207.918 2.672-1.607.93-2.525.58-3.903.232l-4.132 2.324-1.148 4.647 18.596-10.92-2.755-1.627 8.265-.697-1.148 4.88-2.755-1.627L37.7 24.306l6.658-.465 3.673-2.09-1.837-1.162 4.132-2.324 5.05 2.788-4.132 2.556-1.607-.93-3.903 2.324-10.56.93-5.395 3.137c-.115 0 1.263.93-.115 2.09-1.033.697-2.755.697-4.706-.35-.804-.58-1.837-1.394-.804-2.556.918-.697 2.41-.697 4.018-.232z" fill="#546e7a"/></g><g transform="matrix(-1 0 0 -1 24.582199 45.833334)" stroke="none"><path d="M.918.127Q.102-.288.004.655q-.065 1.1.87 1.57.718.27.838-.425Q1.83.7.918.127z" fill="#000"/><path d="M.935.17Q.14-.236.043.684-.02 1.76.892 2.217q.7.262.818-.415Q1.827.727.935.17z" fill="#43a047"/><path d="M.948.42Q.354.118.283.803q-.047.8.633 1.142.522.195.61-.31Q1.612.835.948.42z" fill="#66bb6a"/></g><path d="M25.876 45.615v.508l.97 1.238 2.156 1.2 1.402.11v-.41z" fill="#464646" stroke="none"/></symbol></svg>