<svg xmlns="http://www.w3.org/2000/svg" xmlns:xlink="http://www.w3.org/1999/xlink" viewBox="0 0 62 81" fill="#fff" fill-rule="evenodd" stroke="#000" stroke-linecap="round" stroke-linejoin="round"><use xlink:href="#A" x=".5" y=".5"/><symbol id="A" overflow="visible"><g stroke="none"><path d="M.36 49.833L30 32.572l29.82 17.444-29.64 17.26z" fill="#90a4ae"/><path d="M29.82 79.213v-11.2Q30 66.9 30.898 66.36L59.1 50.017q.898-.367.898.55v11.936q0 .55-.898 1.102l-28.204 16.27q-1.078.44-1.078-.66z" fill="#eceff1"/><path d="M0 62.32l30.18 17.628v-12.67L.36 49.833q-.36.184-.36.55z" fill="#b0bec5"/></g><path d="M33.593 71.868l15.27-8.814" fill="none" stroke-linejoin="miter"/><g stroke="none"><path d="M50.838 63.13v-3.01l.49.3v3.01z" fill="#e53935"/><use xlink:href="#C" fill="#f44336"/><use xlink:href="#D" fill="#ef5350"/><path d="M55.334 60.56v-3.01l.49.3v3.01z" fill="#43a047"/><use xlink:href="#C" x="4.495" y="-2.571" fill="#4caf50"/><use xlink:href="#D" x="4.496" y="-2.571" fill="#66bb6a"/><path d="M.36 34.776L30 17.515 59.82 34.96 30.18 52.22z" fill="#90a4ae"/><path d="M29.82 64.155v-11.2q.18-1.102 1.078-1.653L59.1 34.96q.898-.367.898.55v11.936q0 .55-.898 1.102l-28.204 16.27q-1.078.44-1.078-.66z" fill="#eceff1"/><path d="M0 47.263L30.18 64.89V52.22L.36 34.776q-.36.184-.36.55z" fill="#b0bec5"/></g><path d="M33.593 56.81l15.27-8.814" fill="none" stroke-linejoin="miter"/><g stroke="none"><path d="M50.838 48.073v-3.01l.49.3v3.01z" fill="#e53935"/><use xlink:href="#C" y="-15.047" fill="#f44336"/><use xlink:href="#D" y="-15.057" fill="#ef5350"/><path d="M55.334 45.502v-3.01l.49.3v3.01z" fill="#43a047"/><use xlink:href="#C" x="4.495" y="-17.627" fill="#4caf50"/><use xlink:href="#D" x="4.496" y="-17.628" fill="#66bb6a"/><path d="M.36 19.404L30 2.143l29.82 17.444-29.64 17.26z" fill="#cfd8dc"/><path d="M29.82 48.783v-11.2q.18-1.102 1.078-1.653L59.1 19.587q.898-.367.898.55v11.936q0 .55-.898 1.102l-28.204 16.27q-1.078.44-1.078-.66z" fill="#eceff1"/><path d="M0 31.89L30.18 49.52v-12.67L.36 19.404q-.36.184-.36.55z" fill="#b0bec5"/></g><path d="M33.593 41.44l15.27-8.814" fill="none" stroke-linejoin="miter"/><g stroke="none"><path d="M50.838 32.7v-3.01l.49.3v3.01z" fill="#e53935"/><use xlink:href="#C" y="-30.429" fill="#f44336"/><use xlink:href="#D" y="-30.429" fill="#ef5350"/><path d="M55.334 30.13v-3.01l.49.3v3.01z" fill="#43a047"/><use xlink:href="#C" x="4.495" y="-33" fill="#4caf50"/><use xlink:href="#D" x="4.496" y="-33" fill="#66bb6a"/><path fill="#90a4ae" d="M4.252 65.842l12.968-7.656v-29.14L34.772 18.99V.934L12.86 13.847l-8.608 14.4z"/><path d="M2.56 64.887l1.67.976V27.32l-1.67-.976z" fill="#6a828f"/><path fill="#c4ced4" d="M12.82 13.904L4.23 28.296q4.057-3.17 9.307-3.903 0-9.27-.716-10.49z"/><path fill="#788f9b" d="M13.537 24.394q-5.727.488-9.307 3.903v1.464q3.34-3.415 9.307-5.367z"/><path fill="#c5d1d5" d="M34.777.976l-22.25 13.1-2.33-.66L33.344 0z"/><path fill="#eceff1" d="M2.558 26.345q-.24 1.952 1.67 1.952l8.59-14.392q-1.193-1.708-2.625-.488z"/></g></symbol><defs ><path id="C" d="M53.37 58.647l-2.53 1.474.49.3 2.558-1.48z"/><path id="D" d="M53.887 61.935v-2.992l-2.558 1.48v3.01z"/></defs></svg>