<svg xmlns="http://www.w3.org/2000/svg" xmlns:xlink="http://www.w3.org/1999/xlink" viewBox="0 0 51 81.75" fill="#fff" fill-rule="evenodd" stroke="#000" stroke-linecap="round" stroke-linejoin="round"><use xlink:href="#A" x=".5" y=".5"/><symbol id="A" overflow="visible"><g fill="#c60000" stroke="#dfccaf" stroke-width=".5"><use xlink:href="#C"/><use xlink:href="#C" x="6.836" y="3.828"/><use xlink:href="#C" x="4.102" y="-1.53"/><use xlink:href="#C" x="13.672" y="7.654"/><use xlink:href="#C" x="10.938" y="2.297"/><use xlink:href="#C" x="-6.836" y="-3.826"/><path d="M9.57 34.058l6.836 3.827v3.827L9.57 37.885z"/><use xlink:href="#C" x="-20.508" y="-11.48"/><use xlink:href="#C" x="-2.734" y="-5.356"/><use xlink:href="#C" x="-9.57" y="-9.183"/><use xlink:href="#C" x="-16.406" y="-13.01"/><use xlink:href="#C" x="6.836" y="-3.826"/><use xlink:href="#C" x="13.672"/><use xlink:href="#D"/><use xlink:href="#E"/><path d="M43.75 49.364l3.516-1.913v3.827L43.75 53.19z"/><use xlink:href="#D" y="-7.653"/><use xlink:href="#C" x="-6.836" y="-11.48"/><use xlink:href="#C" y="-7.652"/><use xlink:href="#C" x="-20.508" y="-19.132"/><path d="M9.57 26.404l6.836 3.827v3.827L9.57 30.23zm-6.836 0L6.836 28.7v3.827L2.734 30.23z"/><use xlink:href="#E" y="-7.654"/><path d="M34.18 36.354l6.836 3.827v3.827L34.18 40.18z"/><use xlink:href="#C" x="4.102" y="-9.183"/><use xlink:href="#C" x="-2.734" y="-13.01"/><path d="M13.672 24.874l6.836 3.827v3.827L13.672 28.7z"/><path d="M6.836 21.047l6.836 3.827V28.7l-6.836-3.827z"/><use xlink:href="#F"/><use xlink:href="#D" y="-11.48"/><use xlink:href="#C" x="13.672" y="-7.652"/><use xlink:href="#C" x="6.836" y="-11.48"/><use xlink:href="#C" y="-15.306"/><path d="M43.75 37.884l3.516-1.913v3.827L43.75 41.7zM2.734 14.924L9.57 18.75v3.827L2.734 18.75z"/><path d="M9.57 18.75l6.836 3.827v3.827L9.57 22.578z"/><use xlink:href="#C" x="-6.836" y="-19.132"/><use xlink:href="#E" y="-15.307"/><use xlink:href="#C" x="10.938" y="-13.01"/><use xlink:href="#D" y="-19.133"/><path d="M27.344 24.874L34.18 28.7v3.827L27.344 28.7z"/><path d="M20.508 21.047l6.836 3.827V28.7l-6.836-3.827z"/><use xlink:href="#C" x="-9.57" y="-24.49"/><path d="M6.836 13.393l6.836 3.827v3.827L6.836 17.22z"/><use xlink:href="#F" y="-7.653"/><use xlink:href="#C" x="13.672" y="-15.306"/><use xlink:href="#C" x="6.836" y="-19.132"/><use xlink:href="#C" y="-22.96"/><use xlink:href="#C" x="-6.836" y="-26.786"/><path d="M9.57 11.097l6.836 3.827v3.827L9.57 14.924z"/><use xlink:href="#C" x="-20.508" y="-34.44"/><use xlink:href="#D" y="-22.96"/></g><g stroke="none"><path d="M43.75 27.935L50 24.49v3.827l-6.25 3.444z" fill="#bdbdbd"/><path d="M0 3.444l43.75 24.49v3.827L0 7.27z" fill="#eee"/><path d="M6.25 0L50 24.49l-6.25 3.444L0 3.444z" fill="#fafafa"/></g><g fill="#c60000" stroke="#dfccaf" stroke-width=".5"><use xlink:href="#C" y="22.983"/><use xlink:href="#C" x="6.836" y="26.81"/><path d="M27.344 63.163L34.18 67v3.827L27.344 67zm9.57 9.184l6.836 3.827V80l-6.836-3.827z"/><use xlink:href="#C" x="10.938" y="25.28"/><use xlink:href="#C" x="-6.836" y="19.157"/><path d="M9.57 57.04l6.836 3.827v3.827L9.57 60.867z"/><path d="M2.734 53.213L9.57 57.04v3.827L2.734 57.04z"/><use xlink:href="#C" x="-2.734" y="17.626"/><use xlink:href="#C" x="-9.57" y="13.8"/><path d="M6.836 51.682l6.836 3.827v3.827L6.836 55.51z"/><use xlink:href="#C" x="6.836" y="19.157"/><use xlink:href="#C" x="13.672" y="22.983"/><path d="M43.75 76.173l3.516-1.913v3.827L43.75 80z"/><use xlink:href="#E" y="22.982"/><use xlink:href="#D" y="19.156"/><use xlink:href="#D" y="15.33"/><use xlink:href="#C" x="-6.836" y="11.503"/><use xlink:href="#C" y="15.33"/><use xlink:href="#C" x="-20.508" y="3.85"/><path d="M9.57 49.386l6.836 3.827v3.827L9.57 53.213z"/><use xlink:href="#F" y="30.636"/><use xlink:href="#E" y="15.328"/><use xlink:href="#C" x="10.938" y="17.626"/><use xlink:href="#C" x="4.102" y="13.8"/><use xlink:href="#C" x="-2.734" y="9.972"/><use xlink:href="#C" x="-9.57" y="6.146"/><use xlink:href="#C" x="-16.406" y="2.32"/><path d="M2.734 41.733l4.102 2.296v3.827L2.734 45.56zm41.016 22.96l3.516-1.913v3.827L43.75 68.52z"/><use xlink:href="#C" x="13.672" y="15.33"/><use xlink:href="#C" x="6.836" y="11.503"/><use xlink:href="#C" y="7.676"/><use xlink:href="#D" y="7.676"/><use xlink:href="#C" x="-20.508" y="-3.804"/><path d="M9.57 41.733l6.836 3.827v3.827L9.57 45.56z"/><use xlink:href="#C" x="-6.836" y="3.85"/><use xlink:href="#E" y="7.676"/><path d="M34.18 51.682l6.836 3.827v3.827L34.18 55.51z"/><use xlink:href="#D" y="3.85"/><use xlink:href="#C" x="4.102" y="6.146"/><use xlink:href="#C" x="-2.734" y="2.32"/><use xlink:href="#C" x="-9.57" y="-1.508"/><use xlink:href="#C" x="-16.406" y="-5.334"/><use xlink:href="#F" y="15.33"/></g></symbol><defs ><path id="C" d="M23.242 41.71l6.836 3.827v3.827l-6.836-3.827z"/><path id="D" d="M43.75 53.19l3.516-1.913v3.827l-3.516 1.913z"/><path id="E" d="M41.016 47.834l2.734 1.53v3.827l-2.734-1.53z"/><path id="F" d="M2.734 18.75l4.102 2.296v3.827l-4.102-2.296z"/></defs></svg>