<svg xmlns="http://www.w3.org/2000/svg" xmlns:xlink="http://www.w3.org/1999/xlink" viewBox="0 0 51 81" fill="#fff" fill-rule="evenodd" stroke="#000" stroke-linecap="round" stroke-linejoin="round"><style><![CDATA[.B{fill:#96e652}.C{fill:#cc584c}.D{fill:#3b4950}.E{fill:#f8e96c}]]></style><use xlink:href="#A" x=".5" y=".5"/><symbol id="A" overflow="visible"><g stroke="none"><path d="M0 15l25 15 25-15L25 0z" fill="#eceff1"/><path d="M0 15l25 15v50L0 65z" fill="#cfd8dc"/><path d="M50 65L25 80V30l25-15z" fill="#37474f"/><path d="M22.222 32.396v5.417L1.984 25.625v-5.417z" class="D"/><use xlink:href="#C" class="B"/><use xlink:href="#C" x="14.19" y="8.533" class="C"/><use xlink:href="#C" x="-2.477" y="-1.665" class="B"/><use xlink:href="#C" x="-1.19" y="-0.842"/><use xlink:href="#C" x="1.293" y="0.835" class="B"/><use xlink:href="#C" x="12.698" y="7.71" class="C"/><path d="M22.222 38.646v5.417L1.984 31.875v-5.417z" class="D"/><use xlink:href="#C" y="6.25" class="E"/><use xlink:href="#C" x="14.19" y="14.783" class="C"/><use xlink:href="#C" x="-2.477" y="4.584" class="B"/><use xlink:href="#C" x="-1.19" y="5.408"/><use xlink:href="#C" x="1.293" y="7.085" class="E"/><use xlink:href="#C" x="12.698" y="13.96" class="C"/><path d="M22.222 44.896v5.417L1.984 38.125v-5.417z" class="D"/><use xlink:href="#C" y="12.5" class="E"/><use xlink:href="#C" x="14.19" y="21.033" class="C"/><use xlink:href="#C" x="-2.477" y="10.835" class="B"/><use xlink:href="#C" x="-1.19" y="11.658"/><use xlink:href="#C" x="1.293" y="13.335" class="B"/><use xlink:href="#C" x="12.698" y="20.21" class="C"/><path d="M22.222 51.146v5.417L1.984 44.375v-5.417z" class="D"/><use xlink:href="#C" y="18.75" class="B"/><use xlink:href="#C" x="14.19" y="27.283" class="C"/><use xlink:href="#C" x="-2.477" y="17.085" class="E"/><use xlink:href="#C" x="-1.19" y="17.908"/><use xlink:href="#C" x="1.293" y="19.585" class="B"/><use xlink:href="#C" x="12.698" y="26.46" class="C"/><path d="M22.222 57.396v5.417L1.984 50.625v-5.417z" class="D"/><use xlink:href="#C" y="25" fill="#1e88e5"/><use xlink:href="#C" x="14.19" y="33.533" class="C"/><use xlink:href="#C" x="-2.477" y="23.334" class="B"/><use xlink:href="#C" x="-1.19" y="24.158"/><use xlink:href="#C" x="1.293" y="25.835" class="B"/><use xlink:href="#C" x="12.698" y="32.71" class="C"/><path d="M22.222 63.646v5.417L1.984 56.875v-5.417z" class="D"/><use xlink:href="#C" y="31.25" class="B"/><g class="C"><use xlink:href="#C" x="14.19" y="39.783"/><use xlink:href="#C" x="-2.477" y="29.585"/></g><use xlink:href="#C" x="-1.19" y="30.408"/><use xlink:href="#C" x="1.293" y="32.084" class="B"/><use xlink:href="#C" x="12.698" y="38.96" class="C"/><path d="M22.222 70.105v5.417L1.984 63.334v-5.417z" class="D"/><g class="C"><use xlink:href="#C" y="37.71"/><use xlink:href="#C" x="14.19" y="46.24"/></g><use xlink:href="#C" x="-2.477" y="36.043" class="B"/><use xlink:href="#C" x="-1.19" y="36.866"/><use xlink:href="#C" x="1.293" y="38.543" class="B"/><use xlink:href="#C" x="12.698" y="45.418" class="C"/><path d="M32.584 38.102v3.323L45 33.948v-3.323zm0 5.25v3.323L45 39.198v-3.323zm0 5.25v3.323L45 44.448v-3.323zm0 5.25v3.323L45 49.698v-3.323zm0 5.25v3.323L45 54.948v-3.323z" fill="#eceff1"/></g></symbol><defs ><path id="C" d="M5.93 24.66q-.424-.224-.475.285-.034.594.452.847.373.145.436-.23.062-.594-.413-.902z"/></defs></svg>