<svg xmlns="http://www.w3.org/2000/svg" xmlns:xlink="http://www.w3.org/1999/xlink" viewBox="0 0 81 61" fill="#fff" fill-rule="evenodd" stroke="#000" stroke-linecap="round" stroke-linejoin="round"><use xlink:href="#A" x=".5" y=".5"/><symbol id="A" overflow="visible"><g stroke="none"><path d="M.48 21.836L40 0l39.76 22.07-39.52 21.836z" fill="#cfd8dc"/><path d="M0 37.632l40.24 22.3v-16.03L.48 21.836q-.48.232-.48.697z" fill="#b0bec5"/></g><g fill="none" stroke="#fff"><path d="M29.205 15.802l22.28 12.274" stroke-linejoin="miter"/><path d="M51.487 15.63q7.843 5.878 0 12.447-11.586 6.57-22.46 0-7.843-4.668.178-12.447 12.656-5.705 22.28 0z"/><g stroke-linejoin="miter"><path d="M51.486 15.63l-22.46 12.447"/><path d="M29.206 15.802q-1.426 2.42.357 5.186 1.604 2.075 4.813 4.15 3.387 2.075 6.595 2.766 6.24 1.383 10.517.173"/><path d="M41.86 12.863q-3.92 7.26-16.577 9m13.547 9.335q4.1-8.298 16.577-10.027"/><path d="M51.308 28.076q1.07-2.42-1.07-5.878-1.07-1.73-3.92-3.803-1.783-1.2-5.526-2.593-5.882-2.075-11.23-.173"/></g></g><path d="M39.76 59.005v-14.17q.24-1.394 1.437-2.09L78.802 22.07Q80 21.604 80 22.766v15.1q0 .697-1.198 1.394L41.197 59.84q-1.437.558-1.437-.836z" fill="#eceff1" stroke="none"/><path d="M44.8 49.712l20.36-11.15" fill="none" stroke-linejoin="miter"/><g stroke="none"><path d="M67.784 38.658V34.85l.654.38v3.807z" fill="#e53935"/><path d="M71.158 32.987l-3.374 1.865.654.38 3.41-1.87z" fill="#f44336"/><path d="M71.85 37.146V33.36l-3.41 1.87v3.807z" fill="#ef5350"/><path d="M73.78 35.406V31.6l.654.38v3.807z" fill="#43a047"/><path d="M77.153 29.734L73.78 31.6l.654.38 3.41-1.87z" fill="#4caf50"/><path d="M77.844 33.894V30.11l-3.41 1.87v3.807z" fill="#66bb6a"/></g></symbol></svg>