<svg xmlns="http://www.w3.org/2000/svg" xmlns:xlink="http://www.w3.org/1999/xlink" viewBox="0 0 76 81" fill="#fff" fill-rule="evenodd" stroke="#000" stroke-linecap="round" stroke-linejoin="round"><use xlink:href="#G" x=".5" y=".5"/><defs><linearGradient id="A" x1="0%" y1="50%" x2="100%" y2="50%"><stop offset="0%" stop-color="#c9c9c9"/><stop offset="100%" stop-color="#b0b0b0"/></linearGradient><linearGradient id="B" x1="100%" y1="0%" x2="0%" y2="100%"><stop offset="0%" stop-color="#333"/><stop offset="100%" stop-color="#999"/></linearGradient><linearGradient id="C" x1="83%" y1="0%" x2="17%" y2="100%"><stop offset="0%" stop-color="#b0b0b0"/><stop offset="100%" stop-color="#fff"/></linearGradient><linearGradient id="D" x1="0%" y1="50%" x2="100%" y2="50%"><stop offset="0%" stop-color="#d6d6d6"/><stop offset="100%" stop-color="#c9c9c9"/></linearGradient><linearGradient id="E" x1="100%" y1="0%" x2="0%" y2="100%"><stop offset="0%" stop-color="#00387f"/><stop offset="100%" stop-color="#0af"/></linearGradient><path id="F" d="M9.337 23.912l-7.96-5.017v-1.338l7.96 5.017z"/></defs><symbol id="G" overflow="visible"><g stroke="none"><path d="M0 13.378v33.444l10.714 6.69V20.067z" fill="#c9c9c9"/><path d="M21.43 0l10.714 6.69-21.43 13.378L0 13.378z" fill="#e3e3e3"/><path d="M32.143 6.69v33.444L10.714 53.51V20.067z" fill="url(#A)"/><g fill="#838383"><use xlink:href="#F"/><use xlink:href="#F" y="2.174"/><use xlink:href="#F" y="4.348"/></g><ellipse cx="1.565" cy="1.303" fill="url(#B)" rx="1.565" ry="1.303" transform="matrix(.866025 .5 -.5 .866025 4.653132 43.658457)"/><path d="M54.564 49.674l-8.424 2.818q-2.898.937-.504 2.408l7.938 4.816q2.016 1.204 4.032-1.07l4.187-4.784z" fill="url(#C)"/><path d="M61.793 53.862l-4.187 4.784q-1.243 1.402-2.486 1.482v1.133q1.243-.08 2.486-1.498l4.187-4.784z" fill="url(#A)"/><path d="M44.56 53.583q-.102.594 1.075 1.317l7.938 4.816q.773.462 1.546.412v1.133q-.773.05-1.546-.428l-7.938-4.816q-1.177-.723-1.075-1.317l-.007-1.117" fill="#c9c9c9"/><path d="M73.47 64.612q1.53-.28 1.53-1.675V32.223q0-.705-.32-1.233l-2.183 1.233.973 32.39" fill="url(#D)"/><path d="M35.1 9.605q.973-1.117 2.224-.42l36.425 20.94q.62.345.932.86l-2.183 1.233L35.1 9.605m38.648 49.842L34.82 37.1v4.468q0 1.117.973 1.675l36.98 21.22q.973.558.973-.558z" fill="#e3e3e3"/><path d="M34.82 37.11V10.304q0-1.117.973-.558l36.98 21.22q.973.558.973 1.675v26.805L34.82 37.11" fill="#262626"/><path d="M72.498 57.352v-25.13L36.073 11.28v25.13l36.425 20.94" fill="url(#E)"/><path d="M0 .005Q.063-.04.042.3" fill="#c1c1c1" fill-opacity=".56" transform="matrix(.996195 .087156 -.087156 .996195 61.442654 73.749613)"/><path d="M45.486 78.607L15.02 60.403l12.82-7.532 30.465 18.046z" fill="#eceff1"/><g fill="#c9c9c9"><path d="M58.44 70.942l-12.98 7.786V80l12.98-7.786z"/><path d="M45.46 80v-1.27L14.6 60.296v1.27L45.46 80"/></g><path fill="#646464" d="M45.46 78.728L14.6 60.295l12.98-7.627 30.85 18.274zM26.522 66.652l10.385 6.197 1.833-1.112-10.385-6.197zm27.795 3.814l1.833 1.112 1.07-.636-1.833-1.112zm-2.138-1.27l1.833 1.112 1.07-.636-1.833-1.112zm-2.138-1.27l1.833 1.112 1.07-.636-1.833-1.112zm-2.138-1.27l1.833 1.112 1.07-.636-1.833-1.112zm-2.138-1.27l1.833 1.112 1.07-.636-1.833-1.112zm-2.138-1.27l1.833 1.112 1.07-.636-1.833-1.112zm-2.138-1.27l1.833 1.112 1.07-.636-1.833-1.112zm-2.138-1.27l1.833 1.112 1.07-.636-1.833-1.112zm-2.138-1.27l1.833 1.112 1.07-.636-1.833-1.112zm-2.138-1.27l1.833 1.112 1.07-.636-1.833-1.112zm-2.138-1.27l1.833 1.112 1.07-.636-1.833-1.112zm-2.138-1.27l1.833 1.112 1.07-.636-1.833-1.112zM28.66 55.2l1.833 1.112 1.07-.636-1.833-1.112zm-2.138-1.27l1.833 1.112 1.07-.636-1.833-1.112zm24.283 17.003l3.207 1.907 1.833-1.112-3.207-1.907zm-2.138-1.27l1.833 1.112 1.833-1.112-1.833-1.112zM46.53 68.4l1.833 1.112 1.833-1.112-1.833-1.112zm-2.138-1.27l1.833 1.112 1.833-1.112-1.833-1.112zm-2.138-1.27l1.833 1.112 1.833-1.112-1.833-1.112zm-2.138-1.27l1.833 1.112 1.833-1.112-1.833-1.112zm-2.138-1.27l1.833 1.112 1.833-1.112-1.833-1.112zm-2.138-1.27l1.833 1.112 1.833-1.112-1.833-1.112zm-2.138-1.27l1.833 1.112 1.833-1.112-1.833-1.112zm-2.138-1.27l1.833 1.112 1.833-1.112-1.833-1.112zm-2.138-1.27l1.833 1.112 1.833-1.112-1.833-1.112zm-2.138-1.27l1.833 1.112 1.833-1.112-1.833-1.112zM24.384 55.2l2.596 1.59 1.833-1.112-2.596-1.59zM49.736 72.85l2.138 1.27 1.833-1.112-2.138-1.27zm-2.138-1.27L49.43 72.7l1.833-1.112-1.833-1.112zm-2.138-1.27l1.833 1.112 1.833-1.112-1.833-1.112zm-2.138-1.27l1.833 1.112 1.833-1.112-1.833-1.112zm-2.138-1.27l1.833 1.112 1.833-1.112-1.833-1.112zm-2.138-1.27l1.833 1.112 1.833-1.112-1.833-1.112zm-2.138-1.27l1.833 1.112 1.833-1.112-1.833-1.112zm-2.138-1.27l1.833 1.112 1.833-1.112-1.833-1.112zm-2.138-1.27l1.833 1.112 1.833-1.112-1.833-1.112zm-2.138-1.27l1.833 1.112 1.833-1.112-1.833-1.112zm-2.138-1.27l1.833 1.112 1.833-1.112-1.833-1.112zm-2.138-1.27l1.833 1.112 1.833-1.112-1.833-1.112zm-2.138-1.27l1.833 1.112 1.833-1.112-1.833-1.112zm-1.833-1.112l1.527.953 1.833-1.112-1.527-.953zM44.39 72.213l1.833 1.112 1.833-1.112-1.833-1.112zm2.138 1.27l3.207 1.907 1.833-1.112-3.207-1.907zm-4.276-2.543l1.833 1.112 1.833-1.112-1.833-1.112zm-2.138-1.27l1.833 1.112 1.833-1.112-1.833-1.112zm-4.276-2.542l1.833 1.112 1.833-1.112-1.833-1.112zm2.138 1.27l1.833 1.112 1.833-1.112-1.833-1.112zm-6.414-3.814l1.833 1.112 1.833-1.112-1.833-1.112zm2.138 1.27l1.833 1.112 1.833-1.112-1.833-1.112zm-6.414-3.814l1.833 1.112 1.833-1.112-1.833-1.112zm2.138 1.27l1.833 1.112 1.833-1.112-1.833-1.112zM23 59.5l1.833 1.112 1.833-1.112-1.833-1.112zm2.138 1.27l1.833 1.112 1.833-1.112-1.833-1.112zm-5.04-3.02l2.596 1.59 1.833-1.112-2.596-1.59zm23.52 16.526l3.97 2.384 1.833-1.112-3.97-2.384zm-2.138-1.27l1.833 1.112 1.833-1.112-1.833-1.112zm-2.138-1.27l1.833 1.112 1.833-1.112-1.833-1.112zm-2.138-1.27l1.833 1.112 1.833-1.112-1.833-1.112zm-2.138-1.27l1.833 1.112 1.833-1.112-1.833-1.112zm-2.138-1.27l1.833 1.112 1.833-1.112-1.833-1.112zm-2.138-1.27l1.833 1.112 1.833-1.112-1.833-1.112zm-2.138-1.27l1.833 1.112 1.833-1.112-1.833-1.112zm-2.138-1.27l1.833 1.112 1.833-1.112-1.833-1.112zm-2.138-1.27l1.833 1.112 1.833-1.112-1.833-1.112zm-2.138-1.27l1.833 1.112 1.833-1.112-1.833-1.112zm-4.276-2.543l3.97 2.384 1.833-1.112-3.97-2.384zm-2.138 1.27l1.833 1.112 1.833-1.112-1.833-1.112zm2.138 1.27l1.833 1.112 1.833-1.112-1.833-1.112zm2.138 1.27l1.833 1.112 1.833-1.112-1.833-1.112zm2.138 1.27l1.833 1.112 1.833-1.112-1.833-1.112zm2.138 1.27l1.833 1.112 1.833-1.112-1.833-1.112zm12.83 7.627l1.833 1.112 1.833-1.112-1.833-1.112zm5.345 1.907l1.833 1.112.764-.477-1.833-1.112zm-1.07.636l1.833 1.112.764-.477-1.833-1.112zm2.138 1.27l1.833 1.112.764-.477-1.833-1.112zM39.35 74.28l1.833 1.112.764-.477-1.833-1.112z"/></g></symbol></svg>