<svg xmlns="http://www.w3.org/2000/svg" xmlns:xlink="http://www.w3.org/1999/xlink" viewBox="0 0 61 81" fill="#fff" fill-rule="evenodd" stroke="#000" stroke-linecap="round" stroke-linejoin="round"><use xlink:href="#C" x=".5" y=".5"/><defs><linearGradient id="A" x1="0%" y1="50%" x2="100%" y2="50%"><stop offset="0%" stop-color="#90a4ae"/><stop offset="100%" stop-color="#b0bec5"/></linearGradient><path id="B" d="M6.774 71.11q14.516 5.432 30.968 3.457"/></defs><symbol id="C" overflow="visible"><g stroke="none"><path d="M60 69.136C60 75.155 46.62 80 30 80S0 75.155 0 69.136V52.84h60z" fill="url(#A)"/><ellipse cx="30" cy="52.345" fill="#eceff1" rx="30" ry="10.864"/><ellipse cx="30.484" cy="51.597" fill="#cfd8dc" rx="26.613" ry="9.638"/><ellipse cx="49.002" cy="72.579" fill="#ffee58" rx="1.465" ry="1.495"/><ellipse cx="52.847" cy="70.617" fill="#d9ff66" rx="1.465" ry="1.495"/><ellipse cx="56.6" cy="68.655" fill="#4caf50" rx="1.465" ry="1.495"/></g><use xlink:href="#B" fill="none" stroke-opacity=".34"/><g stroke="none"><path d="M60 48.395c0 6.02-13.38 10.864-30 10.864S0 54.414 0 48.395V32.1h60z" fill="url(#A)"/><ellipse cx="30" cy="31.605" fill="#eceff1" rx="30" ry="10.864"/><ellipse cx="30.484" cy="30.857" fill="#cfd8dc" rx="26.613" ry="9.638"/><ellipse cx="49.002" cy="51.839" fill="#ffee58" rx="1.465" ry="1.495"/><ellipse cx="52.847" cy="49.877" fill="#d9ff66" rx="1.465" ry="1.495"/><ellipse cx="56.6" cy="47.915" fill="#4caf50" rx="1.465" ry="1.495"/></g><use xlink:href="#B" y="-20.74" fill="none" stroke-opacity=".34"/><g stroke="none"><path d="M60 27.654c0 6.02-13.38 10.864-30 10.864S0 33.673 0 27.654V11.358h60z" fill="url(#A)"/><ellipse cx="30" cy="10.864" fill="#eceff1" rx="30" ry="10.864"/><ellipse cx="30.484" cy="10.115" fill="#cfd8dc" rx="26.613" ry="9.638"/><ellipse cx="49.002" cy="31.098" fill="#ffee58" rx="1.465" ry="1.495"/><ellipse cx="52.847" cy="29.136" fill="#d9ff66" rx="1.465" ry="1.495"/><ellipse cx="56.6" cy="27.174" fill="#4caf50" rx="1.465" ry="1.495"/></g><use xlink:href="#B" y="-41.48" fill="none" stroke-opacity=".34"/></symbol></svg>