<svg xmlns="http://www.w3.org/2000/svg" xmlns:xlink="http://www.w3.org/1999/xlink" viewBox="0 0 76 81" fill="#fff" fill-rule="evenodd" stroke="#000" stroke-linecap="round" stroke-linejoin="round"><style><![CDATA[.B{stroke:none}]]></style><use xlink:href="#C" x=".5" y=".5"/><defs><linearGradient id="A" x1="100%" y1="0%" x2="0%" y2="100%"><stop offset="0%"/><stop offset="100%" stop-color="gray"/></linearGradient><path id="B" d="M37.527 69.604v2.712l.655 1.356 1.53.904.874-.678v-2.486z"/></defs><symbol id="C" overflow="visible"><g fill="url(#A)" class="B"><path d="M69.705 20c0-1.23-.1-2.222-1.324-2.222s-1.324.99-1.324 2.222l-.882 31.11h4.412z"/><path d="M38.823 2.222C38.823.99 38.722 0 37.5 0s-1.324.99-1.324 2.222l-.882 31.11h4.412z"/></g><path d="M31.4 27.12q-1.53-.904-3.06 0L.82 43.4q-1.53.904 0 1.808l42.826 25.31q1.53.904 3.06 0l27.53-16.27q1.53-.904 0-1.808L31.4 27.12" fill="#eceff1" class="B"/><path d="M45.175 70.96q.765 0 1.53-.452l27.53-16.27q.765-.452.765-.904v9.04q0 .452-.765.904l-27.53 16.27q-.765.452-1.53.452z" fill="#78909c" class="B"/><path d="M45.175 70.96q-.792.017-1.584-.45L.765 45.198Q0 44.746 0 44.294v9.04q0 .452.765.904l42.826 25.31q.792.468 1.584.45z" fill="#b0bec5" class="B"/><path d="M3.223 48.814v6.78l3.715 2.26v-6.78z" fill="#464646" class="B"/><ellipse cx=".665" cy=".448" rx=".665" ry=".448" transform="matrix(.866025 .5 -.5 .866025 4.666385 51.191101)" class="B"/><g fill="#464646"><use xlink:href="#B" class="B"/><path d="M32.94 66.893v2.712l.655 1.356 1.53.904.874-.678V68.7zm-4.6-2.713v2.712l.655 1.356 1.53.904.874-.678V66z" class="B"/><use xlink:href="#B" x="-13.765" y="-8.134" class="B"/><use xlink:href="#B" x="-18.354" y="-10.847" class="B"/></g><path d="M43.2 40.17l8.548-.767-1.185 5.03-2.454-1.45-7.363 4.263-2.37-1.364 7.278-4.348zM27.36 45.5l8.548.767-1.185-5.03-2.454 1.45-7.363-4.263-2.37 1.364 7.278 4.348zm4.687 9.944l-8.548.767 1.185-5.03 2.454 1.45 7.363-4.263 2.37 1.364-7.278 4.348zM48.42 49.8l-8.548-.767 1.185 5.03 2.454-1.45 7.363 4.263 2.37-1.364-7.278-4.348z" class="B" fill="#788f9b"/></symbol></svg>