<svg xmlns="http://www.w3.org/2000/svg" xmlns:xlink="http://www.w3.org/1999/xlink" viewBox="0 0 62 82" fill="#fff" fill-rule="evenodd" stroke="#000" stroke-linecap="round" stroke-linejoin="round"><use xlink:href="#A" x=".5" y=".5"/><symbol id="A" overflow="visible"><g stroke="none"><path d="M.36 49.003L30 31.267l29.82 17.925-29.64 17.736z" fill="#1e88e5"/><path d="M29.82 79.192v-11.51q.18-1.132 1.078-1.698L59.1 49.192q.898-.377.898.566v12.264q0 .566-.898 1.132L30.898 79.87q-1.078.453-1.078-.68z" fill="#eceff1"/><path d="M0 61.833l30.18 18.113v-13.02L.36 49.003q-.36.19-.36.566z" fill="#1565c0"/></g><path d="M33.593 71.645l15.27-9.057" fill="none" stroke-linejoin="miter"/><g stroke="none"><path d="M50.838 62.666v-3.092l.49.31v3.092z" fill="#e53935"/><use xlink:href="#C" fill="#f44336"/><use xlink:href="#D" fill="#ef5350"/><path d="M55.334 60.024v-3.092l.49.31v3.092z" fill="#43a047"/><use xlink:href="#C" x="4.495" y="-2.642" fill="#4caf50"/><use xlink:href="#D" x="4.496" y="-2.642" fill="#66bb6a"/><path d="M.36 33.53L30 15.795 59.82 33.72 30.18 51.455z" fill="#1e88e5"/><path d="M29.82 63.72V52.2q.18-1.132 1.078-1.698L59.1 33.72q.898-.377.898.566V46.55q0 .566-.898 1.132L30.898 64.4q-1.078.453-1.078-.68z" fill="#eceff1"/><path d="M0 46.36l30.18 18.113v-13.02L.36 33.53q-.36.19-.36.566z" fill="#1565c0"/></g><path d="M33.593 56.173l15.27-9.057" fill="none" stroke-linejoin="miter"/><g stroke="none"><path d="M50.838 47.194v-3.092l.49.31v3.092z" fill="#e53935"/><use xlink:href="#C" y="-15.472" fill="#f44336"/><use xlink:href="#D" y="-15.472" fill="#ef5350"/><path d="M55.334 44.553V41.46l.49.31v3.092z" fill="#43a047"/><use xlink:href="#C" x="4.495" y="-18.114" fill="#4caf50"/><path d="M58.383 43.324V40.25l-2.558 1.52v3.092z" fill="#66bb6a"/><path d="M.36 17.736L30 0l29.82 17.925L30.18 35.66z" fill="#1e88e5"/><path d="M29.82 47.925v-11.51q.18-1.132 1.078-1.698L59.1 17.925q.898-.377.898.566v12.264q0 .566-.898 1.132L30.898 48.604q-1.078.453-1.078-.68z" fill="#eceff1"/><path d="M0 30.566L30.18 48.68V35.66L.36 17.736q-.36.19-.36.566z" fill="#1565c0"/></g><path d="M33.593 40.378l15.27-9.057" fill="#000" stroke-linejoin="miter"/><g stroke="none"><path d="M50.838 31.4v-3.092l.49.31v3.092z" fill="#e53935"/><use xlink:href="#C" y="-31.267" fill="#f44336"/><use xlink:href="#D" y="-31.268" fill="#ef5350"/><path d="M55.334 28.757v-3.092l.49.31v3.092z" fill="#43a047"/><use xlink:href="#C" x="4.495" y="-33.91" fill="#4caf50"/><use xlink:href="#D" x="4.496" y="-33.908" fill="#66bb6a"/></g></symbol><defs ><path id="C" d="M53.37 58.06l-2.53 1.514.49.31 2.558-1.52z"/><path id="D" d="M53.887 61.438v-3.074l-2.558 1.52v3.092z"/></defs></svg>