<svg xmlns="http://www.w3.org/2000/svg" xmlns:xlink="http://www.w3.org/1999/xlink" viewBox="0 0 62 81" fill="#fff" fill-rule="evenodd" stroke="#000" stroke-linecap="round" stroke-linejoin="round"><use xlink:href="#A" x=".5" y=".5"/><symbol id="A" overflow="visible"><g stroke="none"><path d="M.36 48.708L30 30.803l29.82 18.095-29.64 17.905z" fill="#90a4ae"/><path d="M0 61.66l30.18 18.286V66.802L.36 48.707q-.36.2-.36.57z" fill="#b0bec5"/><path d="M29.82 79.184v-11.62q.18-1.143 1.078-1.714L59.1 48.898q.898-.38.898.57v12.38q0 .57-.898 1.143L30.898 79.87q-1.078.457-1.078-.686z" fill="#eceff1"/></g><path d="M33.593 71.565l15.27-9.143" fill="none" stroke-linejoin="miter"/><g stroke="none"><path d="M50.838 62.5v-3.12l.49.312v3.12z" fill="#e53935"/><use xlink:href="#C" fill="#f44336"/><path d="M53.887 61.26v-3.103l-2.558 1.534v3.12z" fill="#ef5350"/><path d="M55.334 59.834v-3.12l.49.312v3.12z" fill="#43a047"/><use xlink:href="#C" x="4.495" y="-2.666" fill="#4caf50"/><path d="M58.383 58.594V55.49l-2.558 1.534v3.12z" fill="#66bb6a"/><path d="M.36 33.47L30 15.565 59.82 33.66 30.18 51.565z" fill="#90a4ae"/><path d="M0 46.42l30.18 18.286V51.564L.36 33.47q-.36.2-.36.57z" fill="#b0bec5"/><path d="M29.82 63.946v-11.62q.18-1.143 1.078-1.714L59.1 33.66q.898-.38.898.57v12.38q0 .57-.898 1.143L30.898 64.63q-1.078.457-1.078-.686z" fill="#eceff1"/></g><path d="M33.593 56.327l15.27-9.143" fill="none" stroke-linejoin="miter"/><g stroke="none"><path d="M50.838 47.262v-3.12l.49.312v3.12z" fill="#e53935"/><use xlink:href="#C" y="-15.238" fill="#f44336"/><path d="M53.887 46.022V42.92l-2.558 1.534v3.12z" fill="#ef5350"/><path d="M55.334 44.595v-3.12l.49.312v3.12z" fill="#43a047"/><use xlink:href="#C" x="4.495" y="-17.904" fill="#4caf50"/><path d="M58.383 43.356v-3.103l-2.558 1.534v3.12z" fill="#66bb6a"/><path d="M.36 17.905L30 0l29.82 18.095L30.18 36z" fill="#cfd8dc"/><path d="M0 30.857l30.18 18.286V36L.36 17.905q-.36.2-.36.57z" fill="#b0bec5"/><path d="M29.82 48.38V36.76q.18-1.143 1.078-1.714L59.1 18.095q.898-.38.898.57v12.38q0 .57-.898 1.143L30.898 49.066q-1.078.457-1.078-.686z" fill="#eceff1"/></g><path d="M33.593 40.762l15.27-9.143" fill="none" stroke-linejoin="miter"/><g stroke="none"><path d="M50.838 31.697v-3.12l.49.312v3.12z" fill="#e53935"/><use xlink:href="#C" y="-30.802" fill="#f44336"/><path d="M53.887 30.458v-3.103L51.33 28.89V32z" fill="#ef5350"/><path d="M55.334 29.03V25.9l.49.312v3.12z" fill="#43a047"/><use xlink:href="#C" x="4.495" y="-33.47" fill="#4caf50"/><path d="M58.383 27.79v-3.103l-2.558 1.534v3.12z" fill="#66bb6a"/></g></symbol><defs ><path id="C" d="M53.37 57.85l-2.53 1.53.49.312 2.558-1.534z"/></defs></svg>