<svg xmlns="http://www.w3.org/2000/svg" xmlns:xlink="http://www.w3.org/1999/xlink" viewBox="0 0 42 81" fill="#fff" fill-rule="evenodd" stroke="#000" stroke-linecap="round" stroke-linejoin="round"><style><![CDATA[.B{fill:#2c2c2c}.C{fill:#1b1b1b}.D{fill:#262626}.E{fill:#027be4}.F{fill:#43a047}.G{fill:#52c234}.H{fill:#90dc7b}]]></style><use xlink:href="#A" x=".5" y=".5"/><symbol id="A" overflow="visible"><g stroke="none"><path d="M.24 60.316L20 49.054l19.88 11.382-19.76 11.262z" class="B"/><path d="M0 68.464l20.12 11.502V71.7L.24 60.317q-.24.12-.24.36z" class="C"/><path d="M19.88 79.486v-7.308q.12-.72.72-1.078L39.4 60.436q.6-.24.6.36v7.788q0 .36-.6.72L20.6 79.918q-.72.288-.72-.43z" class="D"/><path d="M1.83 60.354l18.177-10.36L38.292 60.65 20.116 70.823z" fill="#f25e1e"/><path d="M.24 50.556L20 39.294l19.88 11.382-19.76 11.262z" class="B"/><path d="M0 58.703l20.12 11.502v-8.267L.24 50.556q-.24.12-.24.36z" class="C"/><path d="M19.88 69.726v-7.308q.12-.72.72-1.078L39.4 50.676q.6-.24.6.36v7.788q0 .36-.6.72L20.6 70.158q-.72.288-.72-.43z" class="D"/><path d="M1.83 50.594l18.177-10.36L38.292 50.89 20.116 61.063z" class="E"/><path d="M.24 40.796L20 29.534l19.88 11.382-19.76 11.262z" class="B"/><path d="M0 48.943l20.12 11.502v-8.267L.24 40.796q-.24.12-.24.36z" class="C"/><path d="M19.88 59.965v-7.308q.12-.72.72-1.078L39.4 40.915q.6-.24.6.36v7.788q0 .36-.6.72L20.6 60.397q-.72.288-.72-.43z" class="D"/><path d="M1.83 40.834l18.177-10.36L38.292 41.13 20.116 51.303z" class="E"/><path d="M.24 31.036L20 19.774l19.88 11.382-19.76 11.262z" class="B"/><path d="M0 39.183l20.12 11.502v-8.267L.24 31.036q-.24.12-.24.36z" class="C"/><path d="M19.88 50.205v-7.308q.12-.72.72-1.078L39.4 31.155q.6-.24.6.36v7.788q0 .36-.6.72L20.6 50.637q-.72.288-.72-.43z" class="D"/><path d="M1.83 30.82l18.177-10.36 18.287 10.655L20.116 41.29z" class="E"/><path d="M.24 21.022L20 9.76l19.88 11.382-19.76 11.262z" class="B"/><path d="M0 29.17l20.12 11.502v-8.267L.24 21.023q-.24.12-.24.36z" class="C"/><path d="M19.88 40.192v-7.308q.12-.72.72-1.078L39.4 21.142q.6-.24.6.36V29.3q0 .36-.6.72L20.6 40.624q-.72.288-.72-.43z" class="D"/><path d="M1.83 21.06L20.006 10.7l18.287 10.655L20.116 31.53z" fill="#f25e1e"/><path d="M.24 11.262L20 0l19.88 11.382-19.76 11.262z" class="B"/><path d="M0 19.41L20.12 30.91v-8.267L.24 11.262q-.24.12-.24.36z" class="C"/><path d="M19.88 30.432v-7.308q.12-.72.72-1.078L39.4 11.382q.6-.24.6.36v7.788q0 .36-.6.72L20.6 30.864q-.72.288-.72-.43z" class="D"/><path d="M31.93 69.448v-1.036l.173.104v1.036z" fill="#cfd8dc"/><use xlink:href="#C" fill="#eceff1"/><path d="M33.003 69.036v-1.03l-.9.51v1.036z"/><path d="M33.042 68.812v-1.036l.173.104v1.036z" fill="#cfd8dc"/><use xlink:href="#C" x="1.112" y="-0.636" fill="#eceff1"/><path d="M34.115 68.4v-1.03l-.9.51v1.036z"/><path d="M34.154 68.166V67.13l.173.104v1.036z" fill="#ca240d"/><use xlink:href="#C" x="2.224" y="-1.281" fill="#d9260e"/><path d="M35.227 67.755v-1.03l-.9.51v1.036z" fill="#f13a22"/><path d="M28.594 71.357V70.32l.173.104v1.036z" class="F"/><use xlink:href="#C" x="-3.336" y="1.91" class="G"/><path d="M29.667 70.945v-1.03l-.9.51v1.036z" class="H"/><path d="M29.706 70.72v-1.036l.173.104v1.036z" fill="#0d87a9"/><use xlink:href="#C" x="-2.224" y="1.274" fill="#0fa6cf"/><path d="M30.78 70.3v-1.03l-.9.51v1.036z" fill="#38c8f0"/><path d="M30.818 70.076V69.04l.173.104v1.036z" fill="#0d87a9"/><use xlink:href="#C" x="-1.112" y="0.628" fill="#0fa6cf"/><path d="M31.89 69.664v-1.03l-.9.51v1.036z" fill="#38c8f0"/><path d="M27.482 72v-1.036l.173.104v1.036z" class="F"/><use xlink:href="#C" x="-4.448" y="2.563" class="G"/><path d="M28.555 71.6v-1.03l-.9.51v1.036z" class="H"/><path d="M24.146 73.92v-1.036l.173.104v1.036z" fill="#ebb502"/><use xlink:href="#C" x="-7.784" y="4.472" fill="#fdc403"/><path d="M25.22 73.508v-1.03l-.9.51v1.036z" fill="#fdd245"/><path d="M25.258 73.284v-1.036l.173.104v1.036z" fill="#ebb502"/><use xlink:href="#C" x="-6.672" y="3.836" fill="#fdc403"/><path d="M26.33 72.872v-1.03l-.9.51v1.036z" fill="#fdd245"/><path d="M26.37 72.638v-1.036l.173.104v1.036z" class="F"/><use xlink:href="#C" x="-5.56" y="3.191" class="G"/><path d="M27.443 72.227v-1.03l-.9.51v1.036z" class="H"/><path d="M35.854 67.44v-1.53l.255.153v1.53z" class="E"/><path d="M37.17 65.16l-1.316.75.255.153 1.33-.753z" fill="#329efd"/><path d="M37.44 66.832V65.31l-1.33.753v1.53z" fill="#53affd"/></g></symbol><defs ><path id="C" d="M32.82 67.904l-.9.507.173.104.9-.51z"/></defs></svg>