<svg xmlns="http://www.w3.org/2000/svg" xmlns:xlink="http://www.w3.org/1999/xlink" viewBox="0 0 76 82" fill="#fff" fill-rule="evenodd" stroke="#000" stroke-linecap="round" stroke-linejoin="round"><use xlink:href="#A" x=".5" y=".5"/><symbol id="A" overflow="visible"><g stroke="none"><path d="M62.048 30.574v-1.31q.022-.13.13-.193l3.4-1.91q.108-.043.108.064v1.394q0 .064-.108.13l-3.4 1.9q-.13.05-.13-.077z" fill="#eceff1"/><path d="M50.602 41.474v38.5L0 51.32V13.427z" fill="#90a4ae"/><path d="M50.602 42.07L74.7 28.345 24.096 0 0 13.427z" fill="#eceff1"/><path d="M50.602 42.666V79.32q-.3 1.088 1.205.435L73.494 67.43q1.205-.597 1.506-1.8V28.834q-.3-1.086-1.506-.5l-21.988 12.53q-.904.597-.904 1.8z" fill="#788f9b"/><path d="M51.944 43.38v33.28q-.274.988 1.094.395l19.69-11.2q1.094-.542 1.367-1.625v-33.42q-.273-.986-1.367-.444L52.765 41.755q-.82.542-.82 1.626z" fill="#cfd8dc"/><path d="M53.745 46.148v28.22q-.232.838.928.335l16.696-9.488q.928-.46 1.16-1.378V35.5q-.232-.836-1.16-.377L54.44 44.77q-.696.46-.696 1.378z" fill="#b0bec5"/><path d="M63.513 57.297q3.2-1.59 3.584 2.03.256 4.227-3.412 6.027-2.818 1.03-3.287-1.63-.47-4.227 3.115-6.425z" fill="#cfd8dc"/><use xlink:href="#C" fill="#43a047"/><use xlink:href="#C" x="0.413" y="0.206" fill="#66bb6a"/><g fill="#ff9800"><use xlink:href="#D"/><use xlink:href="#D" y="-2.349"/><use xlink:href="#D" y="-4.662"/></g><g fill="#788f9b"><path d="M34.967 20.705l-3.676 2.103-1.073-.613 9.4-5.37 3 1.715c.9.5 1.325 1.058 1.305 1.647s-.462 1.13-1.326 1.624c-.912.52-1.86.782-2.846.78a5.61 5.61 0 0 1-2.858-.8l-1.915-1.096zm1.013-.58l1.927 1.102c.573.328 1.17.5 1.787.486s1.22-.175 1.812-.512c.56-.32.855-.664.886-1.03s-.214-.706-.733-1.018l-1.988-1.137-3.7 2.1zm7.603 4.985c-.615-.7-.9-1.298-.883-1.792s.366-.928 1.02-1.302c.74-.423 1.607-.626 2.603-.6s1.903.26 2.722.727c.56.32.932.676 1.12 1.068s.183.783-.015 1.172-.558.73-1.078 1.03l-1.078-.617c.57-.326.86-.67.874-1.036s-.265-.7-.835-1.037c-.53-.302-1.076-.46-1.64-.476s-1.087.114-1.565.387c-.383.22-.567.485-.55.798s.252.724.708 1.237.743.953.86 1.322.092.708-.077 1.015-.5.597-.968.87c-.76.435-1.627.637-2.6.605a5.84 5.84 0 0 1-2.748-.786c-.56-.32-.956-.688-1.193-1.106s-.27-.825-.104-1.22.524-.75 1.07-1.063l1.078.617c-.568.325-.834.685-.8 1.08s.355.767.962 1.114c.566.324 1.133.496 1.7.516s1.082-.102 1.542-.365.676-.547.65-.85-.285-.735-.774-1.295z"/><use xlink:href="#E"/></g><g fill="#b0bec5"><path d="M34.967 19.9L31.3 22l-1.072-.613 9.4-5.37 3 1.715c.9.5 1.325 1.058 1.305 1.646s-.462 1.13-1.326 1.624c-.912.52-1.86.782-2.846.78a5.61 5.61 0 0 1-2.858-.8L34.967 19.9zm1.013-.58l1.927 1.102c.573.328 1.17.5 1.786.486a3.78 3.78 0 0 0 1.812-.512c.56-.32.855-.664.886-1.03s-.214-.706-.733-1.018L39.67 17.2l-3.7 2.1zm7.603 4.984c-.615-.7-.9-1.298-.883-1.792s.366-.928 1.02-1.302c.74-.423 1.607-.626 2.603-.6s1.903.26 2.722.727c.56.32.932.675 1.12 1.068s.183.783-.015 1.172-.558.73-1.078 1.03L47.994 24c.57-.326.86-.67.874-1.036s-.265-.7-.835-1.037c-.53-.302-1.076-.46-1.64-.476s-1.087.114-1.565.387c-.383.22-.567.485-.55.798s.252.724.708 1.237.743.953.86 1.322.092.708-.077 1.015-.5.597-.968.87c-.76.435-1.627.637-2.6.605a5.84 5.84 0 0 1-2.748-.786c-.56-.32-.956-.688-1.193-1.107s-.27-.825-.104-1.22.524-.75 1.07-1.063l1.078.617c-.568.325-.834.685-.8 1.08s.355.767.962 1.114c.566.324 1.133.496 1.7.516s1.082-.102 1.542-.365.676-.546.65-.85-.285-.735-.774-1.295z"/><use xlink:href="#E" y="-0.807"/></g></g></symbol><defs ><path id="C" d="M63.557 57.674q2.977-1.48 3.334 1.887.238 3.932-3.174 5.606-2.62.96-3.057-1.517-.437-3.932 2.897-5.976z"/><path id="D" d="M62.896 53.515v1.53l2.496-1.413v-1.53z"/><path id="E" d="M37.966 15.872l-6.385 3.652c-.9.504-1.855.78-2.897.83s-2.007-.142-2.895-.57l-.298-.156c-.9-.51-1.322-1.073-1.296-1.693s.52-1.21 1.485-1.77l6.398-3.66 1.06.607-6.36 3.637c-.68.39-1.045.783-1.098 1.184s.22.772.82 1.115c.607.347 1.258.506 1.955.476s1.384-.24 2.063-.627l6.366-3.64 1.078.616z"/></defs></svg>