<svg xmlns="http://www.w3.org/2000/svg" xmlns:xlink="http://www.w3.org/1999/xlink" viewBox="0 0 71 81" fill="#fff" fill-rule="evenodd" stroke="#000" stroke-linecap="round" stroke-linejoin="round"><use xlink:href="#A" x=".5" y=".5"/><symbol id="A" overflow="visible"><g stroke="none"><path d="M8.91 46.765l26.407-14.207 26.567 14.358-26.407 14.207z" fill="#1e88e5"/><path d="M35.158 70.948v-9.22q.16-.907.96-1.36l25.127-13.452q.8-.302.8.453v9.824q0 .453-.8.907l-25.127 13.39q-.96.363-.96-.544z" fill="#eceff1"/><path d="M8.59 57.043l26.887 14.51v-10.43L8.91 46.765q-.32.15-.32.453z" fill="#1565c0"/></g><path d="M38.52 64.903l13.604-7.255" fill="none" stroke-linejoin="miter"/><g stroke="none"><path d="M53.883 57.7v-2.477l.437.248v2.477z" fill="#e53935"/><use xlink:href="#C" fill="#f44336"/><use xlink:href="#D" fill="#ef5350"/><path d="M57.89 55.594v-2.477l.437.248v2.477z" fill="#43a047"/><use xlink:href="#C" x="4.006" y="-2.116" fill="#4caf50"/><use xlink:href="#D" x="4.005" y="-2.117" fill="#66bb6a"/><path d="M8.91 34.372l26.407-14.207 26.567 14.358L35.478 48.73z" fill="#1e88e5"/><path d="M35.158 58.555v-9.22q.16-.907.96-1.36l25.127-13.452q.8-.302.8.453V44.8q0 .453-.8.907L36.118 59.1q-.96.363-.96-.544z" fill="#eceff1"/><path d="M8.59 44.65l26.887 14.51V48.73L8.91 34.372q-.32.15-.32.453z" fill="#1565c0"/></g><path d="M38.52 52.51l13.604-7.255" fill="none" stroke-linejoin="miter"/><g stroke="none"><path d="M53.883 45.317V42.84l.437.248v2.477z" fill="#e53935"/><use xlink:href="#C" y="-12.393" fill="#f44336"/><path d="M56.6 44.333V41.87l-2.28 1.217v2.477z" fill="#ef5350"/><path d="M57.89 43.2v-2.477l.437.248v2.477z" fill="#43a047"/><use xlink:href="#C" x="4.006" y="-14.51" fill="#4caf50"/><use xlink:href="#D" x="4.005" y="-14.51" fill="#66bb6a"/><path d="M8.91 21.72L35.318 7.512 61.885 21.87 35.478 36.078z" fill="#1e88e5"/><path d="M35.158 45.902v-9.22q.16-.907.96-1.36L61.245 21.87q.8-.302.8.453v9.824q0 .453-.8.907l-25.127 13.39q-.96.363-.96-.544z" fill="#eceff1"/><path d="M8.59 31.997l26.887 14.51v-10.43L8.91 21.72q-.32.15-.32.453z" fill="#1565c0"/></g><path d="M38.52 39.856L52.123 32.6" fill="#000" stroke-linejoin="miter"/><g stroke="none"><path d="M53.883 32.664v-2.477l.437.248v2.477z" fill="#e53935"/><use xlink:href="#C" y="-25.046" fill="#f44336"/><use xlink:href="#D" y="-25.047" fill="#ef5350"/><path d="M57.89 30.548V28.07l.437.248v2.477z" fill="#43a047"/><path d="M60.143 26.858L57.89 28.07l.437.248 2.28-1.217z" fill="#4caf50"/><use xlink:href="#D" x="4.005" y="-27.162" fill="#66bb6a"/></g><g fill="#e3f2fd" stroke="#fff" stroke-dasharray="2 3" stroke-linecap="butt"><path d="M0 19.934L35 0l35 20.062-35 19.934z" fill-opacity=".5"/><path d="M70 20.07v39.868L35 80V40.004z" fill-opacity=".5"/><path d="M0 20.07v39.868L35 80V40.004z" fill-opacity=".5"/></g></symbol><defs ><path id="C" d="M56.137 54.02l-2.254 1.213.437.248 2.28-1.217z"/><path id="D" d="M56.6 56.727v-2.463l-2.28 1.217v2.477z"/></defs></svg>