<svg xmlns="http://www.w3.org/2000/svg" xmlns:xlink="http://www.w3.org/1999/xlink" viewBox="0 0 76 81" fill="#fff" fill-rule="evenodd" stroke="#000" stroke-linecap="round" stroke-linejoin="round"><use xlink:href="#D" x=".5" y=".5"/><defs><linearGradient id="A" x1="100%" y1="0%" x2="0%" y2="100%"><stop offset="0%"/><stop offset="100%" stop-color="gray"/></linearGradient><linearGradient id="B" x1="0%" y1="50%" x2="100%" y2="50%"><stop offset="0%" stop-color="#c9c9c9"/><stop offset="100%" stop-color="#b0b0b0"/></linearGradient><path id="C" d="M1.128.155Q.125-.352.005.8q-.08 1.347 1.07 1.92.883.33 1.03-.52Q2.25.855 1.128.155z"/></defs><symbol id="D" overflow="visible"><g fill="url(#A)" stroke="none"><path d="M69.705 20c0-1.23-.102-2.222-1.323-2.222s-1.323.99-1.323 2.222l-.882 31.11h4.412z"/><path d="M38.823 2.222C38.823.99 38.722 0 37.5 0s-1.324.99-1.324 2.222l-.882 31.11h4.412z"/></g><path d="M31.4 27.12q-1.53-.904-3.06 0L.82 43.4q-1.53.904 0 1.808l42.826 25.31q1.53.904 3.06 0l27.53-16.27q1.53-.904 0-1.808L31.4 27.12" fill="#e3e3e3" stroke="none"/><path d="M45.175 70.96q.765 0 1.53-.452l27.53-16.27q.765-.452.765-.904v9.04q0 .452-.765.904l-27.53 16.27q-.765.452-1.53.452z" fill="url(#B)" stroke="none"/><path d="M45.175 70.96q-.792.017-1.584-.45L.765 45.198Q0 44.746 0 44.294v9.04q0 .452.765.904l42.826 25.31q.792.468 1.584.45z" fill="#c9c9c9" stroke="none"/><path d="M43.897 72.445V78L.662 52.222V46.89z" fill="#3b4950" stroke="none"/><use xlink:href="#C" fill="#ffea00" stroke="none" transform="matrix(-1 0 0 -1 33.531196 70.179696)"/><use xlink:href="#C" fill="#cc584c" stroke="none" transform="matrix(-1 0 0 -1 36.530796 71.906596)"/><use xlink:href="#C" fill="#f5f5f5" stroke="none" transform="matrix(-1 0 0 -1 39.530496 73.633096)"/><path d="M47.403 27.815c1.744-.55 3-1.377 6.23-.55 2.74 1.1 4.485 3.304 6.23 5.782.498.826.25 1.1-.25 1.652-.498.275-.997.275-1.495-.55-.997-1.652-2.74-3.855-4.236-4.405-2.74-1.652-5.233 0-5.98.275-.997 0-1.246-.55-1.246-1.1s.25-.826.748-1.1zm.845 4.907c1.03-1.117 2.574-1.397 4.633-.838 2.316 1.117 3.267 2.843 4.633 4.75.4.635.133.973-.257 1.397-.4.212-.897.077-1.287-.56-.78-1.27-2.433-3.487-3.603-3.9-1.802-.838-2.316.28-3.603.838-.515 0-.515 0-1.03-.56 0-.423.187-.692.515-1.117zM46.33 22.367c2.317-.732 3.972-1.83 8.276-.732 3.64 1.463 5.96 4.4 8.276 7.682.662 1.097.33 1.463-.33 2.195-.662.366-1.324.366-1.986-.73-1.324-2.195-3.64-5.12-5.627-5.853-3.64-2.195-6.952 0-7.945.366-1.324 0-1.655-.732-1.655-1.463s.33-1.097.993-1.463z" stroke="none" fill="#e78244"/><path d="M12.735 55.003v3.486l-11.18-6.436v-3.486z" fill="#cfd8dc" stroke="none"/></symbol></svg>